<svg width="249" height="119" viewBox="0 0 249 119" fill="none" xmlns="http://www.w3.org/2000/svg">
<path d="M24.225 48.82C24.415 49.1367 24.4783 49.4533 24.415 49.77C24.415 50.0233 24.3833 50.245 24.32 50.435C23.8133 51.005 23.4017 51.385 23.085 51.575C22.7683 51.765 22.23 52.05 21.47 52.43C21.28 52.5567 21.09 52.6833 20.9 52.81C20.7733 52.9367 20.615 53 20.425 53C20.1083 53 19.6017 52.7467 18.905 52.24C18.2717 51.7333 17.575 51.2267 16.815 50.72C16.055 50.2133 15.2317 49.8333 14.345 49.58C13.5217 49.3267 12.7617 49.4217 12.065 49.865C11.3683 50.815 10.7033 52.05 10.07 53.57C9.43667 55.0267 8.93 56.5783 8.55 58.225C8.23333 59.8717 8.13833 61.55 8.265 63.26C8.39167 64.97 8.89833 66.5533 9.785 68.01C13.4583 68.39 16.72 67.7883 19.57 66.205C22.42 64.5583 25.0483 62.5317 27.455 60.125C27.455 60.5683 27.3283 60.98 27.075 61.36C26.885 61.6767 26.695 62.025 26.505 62.405C26.2517 62.975 25.9667 63.545 25.65 64.115C25.3967 64.6217 25.0167 65.1283 24.51 65.635C23.6233 66.585 22.61 67.5033 21.47 68.39C20.3933 69.2767 19.2217 70.0683 17.955 70.765C16.7517 71.3983 15.485 71.8733 14.155 72.19C12.8883 72.57 11.6217 72.6967 10.355 72.57C9.65833 72.5067 9.15167 72.3167 8.835 72C8.58167 71.7467 8.10667 71.4617 7.41 71.145C7.03 70.8917 6.52333 70.67 5.89 70.48C5.32 70.29 4.87667 70.0367 4.56 69.72C3.92667 68.96 3.45167 68.0417 3.135 66.965C2.69167 65.5717 2.47 64.0517 2.47 62.405C2.47 60.7583 2.565 59.175 2.755 57.655C3.00833 56.0717 3.325 54.6467 3.705 53.38C4.14833 52.1133 4.52833 51.1317 4.845 50.435C5.225 49.6117 5.795 48.915 6.555 48.345C7.315 47.7117 8.13833 47.1417 9.025 46.635C9.975 46.1283 10.925 45.6533 11.875 45.21C12.825 44.7667 13.7117 44.355 14.535 43.975C17.765 43.975 20.995 45.59 24.225 48.82ZM56.2036 43.975C57.027 46.0017 57.787 48.1867 58.4836 50.53C59.2436 52.8733 59.7503 55.2167 60.0036 57.56C60.3203 59.84 60.3203 62.0567 60.0036 64.21C59.7503 66.3633 59.022 68.2317 57.8186 69.815C57.312 70.4483 56.7103 70.7017 56.0136 70.575C55.7603 70.5117 55.5386 70.3533 55.3486 70.1C55.1586 69.8467 54.9053 69.625 54.5886 69.435C54.3353 69.245 54.0503 69.0867 53.7336 68.96C53.4803 68.8333 53.227 68.58 52.9736 68.2C52.0236 68.5167 51.0736 68.9917 50.1236 69.625C49.237 70.195 48.3186 70.7967 47.3686 71.43C46.4186 72.0633 45.437 72.665 44.4236 73.235C43.4103 73.8683 42.3653 74.3117 41.2886 74.565C40.1486 74.8817 39.2936 74.8183 38.7236 74.375C38.217 73.995 37.647 73.5517 37.0136 73.045C36.5703 72.665 36.2853 72.4117 36.1586 72.285C36.032 72.2217 35.9053 71.8417 35.7786 71.145C35.5886 69.7517 35.557 68.2633 35.6836 66.68C35.8736 65.0333 36.2536 63.3867 36.8236 61.74C38.407 56.9267 41.637 53.6967 46.5136 52.05C47.0836 51.86 47.6536 51.8283 48.2236 51.955C48.857 52.0183 49.4586 52.1767 50.0286 52.43C50.5986 52.6833 51.137 53 51.6436 53.38C52.2136 53.76 52.7203 54.14 53.1636 54.52L54.6836 55.755C55.0003 54.6783 54.9686 53.5383 54.5886 52.335C54.272 51.0683 53.7653 49.8967 53.0686 48.82C52.372 47.68 51.5803 46.6667 50.6936 45.78C49.807 44.8933 48.952 44.2917 48.1286 43.975C44.8986 43.975 41.9853 44.735 39.3886 46.255C36.8553 47.7117 34.3853 49.6433 31.9786 52.05C31.852 52.1767 31.6936 52.2717 31.5036 52.335C31.377 52.3983 31.2503 52.4617 31.1236 52.525C30.9336 52.6517 30.712 52.6833 30.4586 52.62C30.2686 52.5567 30.237 52.3667 30.3636 52.05C30.7436 50.0233 31.5036 48.2183 32.6436 46.635C33.7836 44.9883 35.1136 43.5633 36.6336 42.36C38.1536 41.1567 39.7686 40.1433 41.4786 39.32C43.1886 38.4967 44.867 37.895 46.5136 37.515C46.767 37.3883 46.9886 37.325 47.1786 37.325C47.432 37.2617 47.717 37.23 48.0336 37.23C48.477 37.23 48.8886 37.3567 49.2686 37.61C49.6486 37.8633 50.092 38.1483 50.5986 38.465C51.232 38.7817 51.8653 39.1617 52.4986 39.605C53.132 39.985 53.702 40.46 54.2086 41.03C54.652 41.5367 55.032 42.0433 55.3486 42.55C55.6653 43.0567 55.9503 43.5317 56.2036 43.975ZM52.9736 60.885C52.5936 60.0617 51.992 59.3017 51.1686 58.605C50.4086 57.9083 49.522 57.4017 48.5086 57.085C47.4953 56.705 46.387 56.61 45.1836 56.8C44.0436 56.99 42.872 57.56 41.6686 58.51C41.2886 59.3333 40.9086 60.2517 40.5286 61.265C40.1486 62.215 39.8636 63.1967 39.6736 64.21C39.4836 65.16 39.3886 66.1417 39.3886 67.155C39.452 68.105 39.6736 68.9917 40.0536 69.815C42.4603 68.9917 44.8036 68.0417 47.0836 66.965C49.3636 65.8883 51.327 64.9383 52.9736 64.115C53.3536 63.735 53.5753 63.4183 53.6386 63.165C53.702 62.9117 53.6703 62.69 53.5436 62.5C53.4803 62.31 53.3536 62.0883 53.1636 61.835C53.037 61.5817 52.9736 61.265 52.9736 60.885ZM96.232 41.315C96.232 41.885 96.327 42.6133 96.517 43.5C96.707 44.3233 96.6437 44.9883 96.327 45.495C96.2004 45.6217 96.137 45.875 96.137 46.255C96.137 46.5717 96.042 46.7933 95.852 46.92L94.617 46.16C93.6037 45.6533 92.4637 45.4317 91.197 45.495C89.9937 45.5583 88.7587 45.8433 87.492 46.35C86.6054 46.73 85.7187 47.2683 84.832 47.965C84.0087 48.5983 83.217 49.3267 82.457 50.15C81.697 50.9733 81.0004 51.8283 80.367 52.715C79.7337 53.6017 79.1954 54.4567 78.752 55.28C77.7387 57.1167 77.232 59.3333 77.232 61.93C77.2954 64.5267 78.2454 67.8833 80.082 72C80.082 72.4433 79.7654 72.9817 79.132 73.615C79.0054 73.7417 78.847 73.9317 78.657 74.185C78.467 74.4383 78.3087 74.6283 78.182 74.755C77.6754 75.1983 77.3587 75.5783 77.232 75.895C77.1687 76.2117 76.9787 76.4333 76.662 76.56C76.1554 76.75 75.6804 76.3067 75.237 75.23C74.1604 73.33 73.1154 71.0183 72.102 68.295C71.152 65.5083 70.2337 62.6583 69.347 59.745C68.5237 56.8317 67.7637 54.045 67.067 51.385C66.4337 48.6617 65.927 46.3817 65.547 44.545C65.357 44.0383 65.3254 43.5633 65.452 43.12C65.5787 42.6133 65.7687 42.2017 66.022 41.885C66.212 41.6317 66.4337 41.5683 66.687 41.695C67.0037 41.8217 67.257 41.885 67.447 41.885C68.2704 41.885 68.777 42.0433 68.967 42.36C69.157 42.6767 69.4737 43.0883 69.917 43.595C70.8037 44.6083 71.5004 45.97 72.007 47.68C72.5137 49.39 73.147 51.4167 73.907 53.76C74.9204 52.05 76.2187 50.4033 77.802 48.82C79.4487 47.2367 81.222 45.8117 83.122 44.545C85.022 43.215 86.9854 42.1383 89.012 41.315C91.0387 40.4917 93.002 39.985 94.902 39.795C95.282 39.7317 95.5987 39.8583 95.852 40.175C96.1687 40.4283 96.2954 40.8083 96.232 41.315ZM157.091 41.315C157.091 41.885 157.186 42.6133 157.376 43.5C157.566 44.3233 157.503 44.9883 157.186 45.495C157.06 45.6217 156.996 45.875 156.996 46.255C156.996 46.5717 156.901 46.7933 156.711 46.92L155.476 46.16C154.463 45.6533 153.323 45.4317 152.056 45.495C150.853 45.5583 149.618 45.8433 148.351 46.35C147.465 46.73 146.578 47.2683 145.691 47.965C144.868 48.5983 144.076 49.3267 143.316 50.15C142.556 50.9733 141.86 51.8283 141.226 52.715C140.593 53.6017 140.055 54.4567 139.611 55.28C138.598 57.1167 138.091 59.3333 138.091 61.93C138.155 64.5267 139.105 67.8833 140.941 72C140.941 72.4433 140.625 72.9817 139.991 73.615C139.865 73.7417 139.706 73.9317 139.516 74.185C139.326 74.4383 139.168 74.6283 139.041 74.755C138.535 75.1983 138.218 75.5783 138.091 75.895C138.028 76.2117 137.838 76.4333 137.521 76.56C137.015 76.75 136.54 76.3067 136.096 75.23C135.02 73.33 133.975 71.0183 132.961 68.295C132.011 65.5083 131.093 62.6583 130.206 59.745C129.383 56.8317 128.623 54.045 127.926 51.385C127.293 48.6617 126.786 46.3817 126.406 44.545C126.216 44.0383 126.185 43.5633 126.311 43.12C126.438 42.6133 126.628 42.2017 126.881 41.885C127.071 41.6317 127.293 41.5683 127.546 41.695C127.863 41.8217 128.116 41.885 128.306 41.885C129.13 41.885 129.636 42.0433 129.826 42.36C130.016 42.6767 130.333 43.0883 130.776 43.595C131.663 44.6083 132.36 45.97 132.866 47.68C133.373 49.39 134.006 51.4167 134.766 53.76C135.78 52.05 137.078 50.4033 138.661 48.82C140.308 47.2367 142.081 45.8117 143.981 44.545C145.881 43.215 147.845 42.1383 149.871 41.315C151.898 40.4917 153.861 39.985 155.761 39.795C156.141 39.7317 156.458 39.8583 156.711 40.175C157.028 40.4283 157.155 40.8083 157.091 41.315ZM173.655 40.745C174.161 41.2517 174.351 41.6633 174.225 41.98C174.161 42.2967 173.971 42.4233 173.655 42.36C172.831 42.36 171.913 42.455 170.9 42.645C169.95 42.7717 168.905 42.8983 167.765 43.025C166.688 43.0883 165.548 43.0883 164.345 43.025C163.141 42.9617 161.938 42.74 160.735 42.36C160.228 41.8533 160.228 41.41 160.735 41.03C161.305 40.5867 161.748 39.9533 162.065 39.13C162.255 38.56 162.508 38.18 162.825 37.99C163.205 37.7367 163.585 37.5783 163.965 37.515C164.661 37.515 165.516 37.6733 166.53 37.99C167.606 38.2433 168.493 38.4017 169.19 38.465C170.266 38.5917 171.153 38.7817 171.85 39.035C172.546 39.225 173.148 39.795 173.655 40.745ZM171.66 53.665C172.04 55.1217 172.325 56.4517 172.515 57.655C172.768 58.8583 172.926 60.03 172.99 61.17C173.116 62.2467 173.18 63.355 173.18 64.495C173.243 65.635 173.275 66.87 173.275 68.2C173.275 68.4533 173.116 68.7383 172.8 69.055C172.546 69.3083 172.356 69.5933 172.23 69.91C171.976 70.48 171.755 70.8283 171.565 70.955C171.438 71.0817 171.185 71.24 170.805 71.43C169.918 71.81 169.126 72.3483 168.43 73.045C167.606 71.8417 167.036 70.4483 166.72 68.865C166.466 67.2817 166.276 65.635 166.15 63.925C166.086 62.215 165.991 60.505 165.865 58.795C165.801 57.0217 165.58 55.3117 165.2 53.665C165.01 52.7783 165.073 52.1767 165.39 51.86C165.706 51.5433 166.055 51.3217 166.435 51.195C166.878 51.0683 167.353 51.1633 167.86 51.48C168.43 51.7967 168.968 52.1133 169.475 52.43C169.918 52.6833 170.33 52.8417 170.71 52.905C171.153 52.905 171.47 53.1583 171.66 53.665ZM211.364 41.315C211.364 41.885 211.459 42.6133 211.649 43.5C211.839 44.3233 211.776 44.9883 211.459 45.495C211.332 45.6217 211.269 45.875 211.269 46.255C211.269 46.5717 211.174 46.7933 210.984 46.92L209.749 46.16C208.736 45.6533 207.596 45.4317 206.329 45.495C205.126 45.5583 203.891 45.8433 202.624 46.35C201.737 46.73 200.851 47.2683 199.964 47.965C199.141 48.5983 198.349 49.3267 197.589 50.15C196.829 50.9733 196.132 51.8283 195.499 52.715C194.866 53.6017 194.327 54.4567 193.884 55.28C192.871 57.1167 192.364 59.3333 192.364 61.93C192.427 64.5267 193.377 67.8833 195.214 72C195.214 72.4433 194.897 72.9817 194.264 73.615C194.137 73.7417 193.979 73.9317 193.789 74.185C193.599 74.4383 193.441 74.6283 193.314 74.755C192.807 75.1983 192.491 75.5783 192.364 75.895C192.301 76.2117 192.111 76.4333 191.794 76.56C191.287 76.75 190.812 76.3067 190.369 75.23C189.292 73.33 188.247 71.0183 187.234 68.295C186.284 65.5083 185.366 62.6583 184.479 59.745C183.656 56.8317 182.896 54.045 182.199 51.385C181.566 48.6617 181.059 46.3817 180.679 44.545C180.489 44.0383 180.457 43.5633 180.584 43.12C180.711 42.6133 180.901 42.2017 181.154 41.885C181.344 41.6317 181.566 41.5683 181.819 41.695C182.136 41.8217 182.389 41.885 182.579 41.885C183.402 41.885 183.909 42.0433 184.099 42.36C184.289 42.6767 184.606 43.0883 185.049 43.595C185.936 44.6083 186.632 45.97 187.139 47.68C187.646 49.39 188.279 51.4167 189.039 53.76C190.052 52.05 191.351 50.4033 192.934 48.82C194.581 47.2367 196.354 45.8117 198.254 44.545C200.154 43.215 202.117 42.1383 204.144 41.315C206.171 40.4917 208.134 39.985 210.034 39.795C210.414 39.7317 210.731 39.8583 210.984 40.175C211.301 40.4283 211.427 40.8083 211.364 41.315ZM240.657 46.445C240.657 50.8783 240.689 54.995 240.752 58.795C240.879 62.595 241.259 66.3317 241.892 70.005C241.956 70.385 241.861 70.7967 241.607 71.24C241.354 71.6833 241.101 72.0633 240.847 72.38C240.467 72.8233 240.119 73.235 239.802 73.615C239.486 74.0583 239.169 74.3433 238.852 74.47C238.219 74.7867 237.839 74.85 237.712 74.66C237.586 74.47 237.491 74.2167 237.427 73.9C237.174 72.6967 236.826 71.0817 236.382 69.055C236.002 66.965 235.749 64.875 235.622 62.785C234.862 64.0517 234.007 65.35 233.057 66.68C232.171 67.9467 231.189 69.1183 230.112 70.195C229.099 71.2717 228.054 72.2217 226.977 73.045C225.901 73.9317 224.856 74.565 223.842 74.945C223.399 75.135 223.082 75.1667 222.892 75.04C222.766 74.9133 222.512 74.7867 222.132 74.66C221.562 74.4067 220.992 74.1533 220.422 73.9C219.916 73.71 219.504 73.3933 219.187 72.95C218.491 71.7467 217.921 70.575 217.477 69.435C216.781 67.5983 216.337 65.6667 216.147 63.64C216.021 61.6133 216.021 59.5867 216.147 57.56C216.274 55.5333 216.496 53.57 216.812 51.67C217.129 49.77 217.446 48.0283 217.762 46.445C217.826 46.1283 217.984 45.9383 218.237 45.875C218.491 45.7483 218.649 45.5267 218.712 45.21C218.839 44.7033 219.061 44.355 219.377 44.165C219.757 43.975 220.137 43.8167 220.517 43.69C221.024 43.5633 221.404 43.4683 221.657 43.405C221.974 43.2783 222.386 43.215 222.892 43.215C222.322 45.0517 221.879 47.1417 221.562 49.485C221.246 51.8283 221.087 54.235 221.087 56.705C221.151 59.1117 221.372 61.455 221.752 63.735C222.196 66.015 222.829 68.01 223.652 69.72C224.856 68.8967 226.027 67.8833 227.167 66.68C228.371 65.4767 229.479 64.2417 230.492 62.975C231.506 61.645 232.392 60.3783 233.152 59.175C233.976 57.9717 234.577 56.9583 234.957 56.135C235.337 54.8683 235.559 53.4433 235.622 51.86C235.749 50.2133 235.812 48.7567 235.812 47.49C235.749 46.92 235.781 46.4767 235.907 46.16C236.097 45.8433 236.287 45.495 236.477 45.115C236.604 44.925 236.667 44.735 236.667 44.545C236.731 44.355 236.857 44.1967 237.047 44.07C237.174 43.9433 237.301 43.785 237.427 43.595C237.617 43.3417 237.807 43.215 237.997 43.215C238.377 43.215 238.631 43.405 238.757 43.785C238.884 44.165 239.074 44.45 239.327 44.64C239.644 44.9567 239.929 45.21 240.182 45.4C240.499 45.5267 240.657 45.875 240.657 46.445Z" fill="white"/>
<path d="M84.85 98.125C85.0167 96.7083 85.3583 95.425 85.875 94.275C86.3917 93.125 87.05 92.025 87.85 90.975C87.4667 91.025 87.0667 91.1 86.65 91.2C86.2333 91.3 85.8167 91.4167 85.4 91.55C84.9833 91.6667 84.5917 91.7917 84.225 91.925C83.8583 92.0417 83.55 92.15 83.3 92.25C83.1833 92.3 83.1167 92.3 83.1 92.25C83.0833 92.2 83.05 92.1917 83 92.225L82.675 92.175C82.6417 92.0917 82.6 92.025 82.55 91.975C82.5 91.925 82.4667 91.8583 82.45 91.775C82.4333 91.6583 82.45 91.5333 82.5 91.4C82.8667 91.1 83.275 90.8333 83.725 90.6C84.1917 90.35 84.6583 90.1417 85.125 89.975C85.6083 89.7917 86.075 89.65 86.525 89.55C86.9917 89.45 87.4167 89.4 87.8 89.4C88.0167 89.4 88.1917 89.45 88.325 89.55C88.4083 89.6 88.4667 89.6917 88.5 89.825C88.5333 89.9417 88.5667 90.05 88.6 90.15C88.6333 90.2333 88.6917 90.3333 88.775 90.45C88.8583 90.55 88.9 90.65 88.9 90.75L88.675 91.05C88.0917 92.15 87.6167 93.1917 87.25 94.175C86.9 95.1417 86.6167 96.1 86.4 97.05C86.3667 97.2 86.3083 97.325 86.225 97.425C86.1583 97.5083 86.1083 97.6167 86.075 97.75C86.075 97.8167 86.0417 97.9083 85.975 98.025C85.925 98.1583 85.8583 98.25 85.775 98.3C85.675 98.3667 85.5917 98.4167 85.525 98.45C85.4583 98.4833 85.3833 98.5 85.3 98.5C85.2667 98.5 85.1833 98.5083 85.05 98.525C84.9333 98.5583 84.85 98.5583 84.8 98.525L84.85 98.125ZM94.575 90.55C94.575 91.0167 94.575 91.4417 94.575 91.825C94.5917 92.1917 94.6 92.5333 94.6 92.85C95.2167 92.7167 95.8417 92.5917 96.475 92.475C97.125 92.3417 97.7583 92.3 98.375 92.35C98.3417 92.45 98.2417 92.5333 98.075 92.6C97.9083 92.65 97.7833 92.7083 97.7 92.775C97.6167 92.8583 97.5417 92.9167 97.475 92.95C97.4083 92.9667 97.3333 93 97.25 93.05C96.8667 93.1333 96.4333 93.2333 95.95 93.35C95.4833 93.45 95.0417 93.5583 94.625 93.675C94.6417 94.1083 94.6583 94.4917 94.675 94.825C94.6917 95.1417 94.7083 95.45 94.725 95.75C94.7417 96.05 94.7583 96.35 94.775 96.65C94.7917 96.9333 94.8167 97.2583 94.85 97.625C94.7833 97.625 94.6833 97.5917 94.55 97.525C94.4167 97.4583 94.2833 97.375 94.15 97.275C93.9833 97.1583 93.8667 97.05 93.8 96.95C93.75 96.8333 93.7 96.6917 93.65 96.525C93.6167 96.4083 93.55 96.2833 93.45 96.15C93.35 96.0167 93.2833 95.8917 93.25 95.775C93.1333 95.2083 93.0583 94.6167 93.025 94C92.9917 93.3667 92.9833 92.7417 93 92.125C93.0167 91.4917 93.05 90.8833 93.1 90.3C93.15 89.7 93.2 89.1417 93.25 88.625C93.3 88.4583 93.3583 88.375 93.425 88.375C93.475 88.375 93.5333 88.4417 93.6 88.575C93.6833 88.7083 93.7667 88.8583 93.85 89.025L94.025 89.4C94.0917 89.5333 94.1417 89.6333 94.175 89.7C94.2083 89.7667 94.2333 89.825 94.25 89.875C94.2833 89.9083 94.3167 89.9417 94.35 89.975L94.475 90.1C94.5083 90.1333 94.5333 90.1833 94.55 90.25C94.5667 90.3 94.575 90.4 94.575 90.55ZM89.325 95.775C89.4917 96.8417 89.725 97.9333 90.025 99.05C90.3417 100.183 90.6417 101.2 90.925 102.1C90.9583 102.167 90.95 102.208 90.9 102.225C90.8667 102.242 90.85 102.275 90.85 102.325C90.8167 102.358 90.8083 102.417 90.825 102.5C90.8583 102.583 90.85 102.667 90.8 102.75C90.7667 102.8 90.7333 102.858 90.7 102.925C90.6833 102.992 90.6583 103.042 90.625 103.075L90.35 102.875C90.0167 102.225 89.725 101.517 89.475 100.75C89.2417 100 89.05 99.225 88.9 98.425C88.75 97.6417 88.6417 96.8667 88.575 96.1C88.5083 95.3167 88.4833 94.575 88.5 93.875L89.1 94.85C89.2167 95.2167 89.2917 95.525 89.325 95.775ZM87.575 87.975C87.575 88.1083 87.55 88.2417 87.5 88.375C87.4667 88.4917 87.4333 88.575 87.4 88.625C87.3333 88.7083 87.2833 88.8 87.25 88.9C87.2333 89 87.2083 89.05 87.175 89.05C87.1583 89.05 87.1333 89.0333 87.1 89C87.0667 88.9667 87.0417 88.95 87.025 88.95C87.0083 88.95 86.9917 88.9417 86.975 88.925C86.9583 88.925 86.9417 88.9167 86.925 88.9C86.8083 88.45 86.7167 87.975 86.65 87.475C86.6 86.975 86.5917 86.4833 86.625 86C86.6583 85.5 86.7333 85.0333 86.85 84.6C86.9667 84.15 87.1417 83.75 87.375 83.4C87.4083 83.4 87.4417 83.375 87.475 83.325C87.525 83.2583 87.5583 83.2333 87.575 83.25C87.6083 83.2833 87.6583 83.325 87.725 83.375C87.8083 83.4083 87.8667 83.4333 87.9 83.45C87.9833 83.4833 88.0583 83.6 88.125 83.8C88.1917 84 88.2417 84.125 88.275 84.175C88.1917 84.425 88.1083 84.7167 88.025 85.05C87.9583 85.3667 87.8917 85.7 87.825 86.05C87.7583 86.4 87.7 86.7417 87.65 87.075C87.6167 87.4083 87.5917 87.7083 87.575 87.975ZM106.029 97.7C106.029 98.0667 105.862 98.4667 105.529 98.9C105.196 99.35 104.721 99.8667 104.104 100.45C104.154 100.417 104.221 100.383 104.304 100.35C104.387 100.317 104.487 100.275 104.604 100.225C104.871 100.125 105.146 100.05 105.429 100C105.562 99.9667 105.729 99.95 105.929 99.95C106.129 99.9667 106.296 99.9917 106.429 100.025C106.679 100.108 106.837 100.208 106.904 100.325C106.937 100.392 106.929 100.458 106.879 100.525C106.846 100.592 106.829 100.683 106.829 100.8C106.396 101.467 105.846 102.208 105.179 103.025C104.512 103.842 103.862 104.6 103.229 105.3C104.096 105 104.846 104.725 105.479 104.475C106.129 104.225 106.712 103.992 107.229 103.775C107.762 103.575 108.254 103.375 108.704 103.175C109.154 102.992 109.621 102.808 110.104 102.625C110.154 102.625 110.104 102.683 109.954 102.8C109.804 102.917 109.687 103.025 109.604 103.125L108.354 104.375C107.971 104.642 107.496 104.917 106.929 105.2C106.379 105.483 105.796 105.75 105.179 106C104.562 106.25 103.954 106.458 103.354 106.625C102.754 106.808 102.237 106.925 101.804 106.975C101.621 107.008 101.487 107.017 101.404 107C101.337 106.983 101.287 106.925 101.254 106.825C101.237 106.758 101.229 106.658 101.229 106.525C101.246 106.408 101.271 106.308 101.304 106.225C101.337 106.142 101.362 106.05 101.379 105.95C101.412 105.85 101.471 105.75 101.554 105.65C101.704 105.467 101.929 105.208 102.229 104.875C102.529 104.558 102.854 104.2 103.204 103.8C103.571 103.417 103.929 103.017 104.279 102.6C104.629 102.183 104.929 101.792 105.179 101.425C104.562 101.642 103.912 101.875 103.229 102.125C102.562 102.392 101.846 102.642 101.079 102.875C100.929 102.908 100.846 102.842 100.829 102.675C100.812 102.525 100.829 102.408 100.879 102.325C100.929 102.258 100.962 102.167 100.979 102.05C101.012 101.933 101.071 101.85 101.154 101.8C101.237 101.733 101.312 101.675 101.379 101.625C101.462 101.575 101.537 101.525 101.604 101.475C101.787 101.342 102.012 101.142 102.279 100.875C102.562 100.608 102.829 100.325 103.079 100.025C103.346 99.725 103.579 99.4417 103.779 99.175C103.996 98.9083 104.129 98.7083 104.179 98.575C104.229 98.4917 104.221 98.4167 104.154 98.35C104.054 98.3 103.887 98.3 103.654 98.35C103.421 98.4 103.129 98.4833 102.779 98.6C102.446 98.7333 102.071 98.8833 101.654 99.05C101.237 99.2167 100.804 99.3833 100.354 99.55C100.204 99.5167 100.079 99.425 99.9789 99.275C99.8789 99.1417 99.8122 99.0583 99.7789 99.025C99.7289 98.975 99.7039 98.875 99.7039 98.725V98.3C99.6872 98.1667 99.6706 98.0667 99.6539 98C99.6539 97.95 99.6956 97.8917 99.7789 97.825C100.046 97.675 100.337 97.5333 100.654 97.4C100.971 97.25 101.296 97.1167 101.629 97C101.962 96.8667 102.304 96.7583 102.654 96.675C103.004 96.575 103.346 96.5167 103.679 96.5C103.812 96.4833 103.971 96.4667 104.154 96.45C104.354 96.4167 104.521 96.4083 104.654 96.425C104.837 96.4583 104.979 96.5417 105.079 96.675C105.179 96.7917 105.296 96.8917 105.429 96.975L105.829 97.25C105.962 97.3333 106.029 97.4833 106.029 97.7ZM102.954 84.4C102.671 84.8167 102.354 85.275 102.004 85.775C101.671 86.275 101.404 86.6917 101.204 87.025C101.354 86.975 101.554 86.9167 101.804 86.85C102.054 86.7833 102.296 86.7333 102.529 86.7C102.646 86.6833 102.754 86.6833 102.854 86.7L103.154 86.75C103.237 86.7667 103.321 86.775 103.404 86.775C103.487 86.775 103.554 86.7917 103.604 86.825C103.671 86.8583 103.746 86.9083 103.829 86.975C103.912 87.0417 103.946 87.1167 103.929 87.2C103.929 87.3 103.887 87.425 103.804 87.575C103.737 87.725 103.662 87.8583 103.579 87.975C103.212 88.4917 102.837 89.0417 102.454 89.625C102.071 90.1917 101.704 90.75 101.354 91.3C101.637 91.1833 101.946 91.0583 102.279 90.925C102.612 90.775 102.937 90.6333 103.254 90.5C103.587 90.35 103.904 90.2167 104.204 90.1C104.521 89.9833 104.796 89.8917 105.029 89.825C105.196 89.7917 105.346 89.7667 105.479 89.75C105.629 89.7333 105.787 89.7167 105.954 89.7C105.904 89.8167 105.846 89.8917 105.779 89.925C105.712 89.9583 105.637 90.025 105.554 90.125C105.421 90.3083 105.271 90.5167 105.104 90.75C104.937 90.9833 104.762 91.15 104.579 91.25C104.279 91.4167 103.946 91.5917 103.579 91.775C103.212 91.9417 102.837 92.1083 102.454 92.275C102.087 92.4417 101.712 92.6 101.329 92.75C100.962 92.8833 100.621 93 100.304 93.1C100.271 93.05 100.262 92.9833 100.279 92.9C100.296 92.8167 100.304 92.7083 100.304 92.575C100.304 92.4917 100.296 92.4083 100.279 92.325C100.262 92.225 100.271 92.1333 100.304 92.05L100.529 91.525C100.662 91.225 100.821 90.9083 101.004 90.575C101.187 90.2417 101.371 89.925 101.554 89.625C101.737 89.3083 101.904 89.025 102.054 88.775C102.221 88.5083 102.346 88.3083 102.429 88.175C102.179 88.2583 101.812 88.4167 101.329 88.65C100.862 88.8833 100.412 89.1167 99.9789 89.35C99.8289 89.35 99.7789 89.2083 99.8289 88.925C99.8622 88.7917 99.9039 88.675 99.9539 88.575C100.004 88.475 100.062 88.3417 100.129 88.175C100.179 88.0583 100.204 87.9333 100.204 87.8C100.221 87.6667 100.262 87.5333 100.329 87.4C100.579 86.8833 100.904 86.35 101.304 85.8C101.704 85.2333 102.046 84.7417 102.329 84.325C102.379 84.225 102.287 84.1667 102.054 84.15C101.837 84.1167 101.554 84.1083 101.204 84.125C100.854 84.125 100.479 84.15 100.079 84.2C99.6956 84.2333 99.3622 84.2667 99.0789 84.3L99.0039 83.875C99.0039 83.7917 99.0039 83.7167 99.0039 83.65C99.0206 83.5667 99.0206 83.5 99.0039 83.45C98.9872 83.3833 98.9622 83.3333 98.9289 83.3C98.9122 83.25 98.9039 83.1833 98.9039 83.1C99.0372 82.9333 99.2289 82.8 99.4789 82.7C99.7456 82.6 100.021 82.5417 100.304 82.525C100.604 82.4917 100.896 82.4917 101.179 82.525C101.479 82.5583 101.746 82.625 101.979 82.725C102.046 82.7583 102.121 82.7917 102.204 82.825C102.304 82.8583 102.387 82.8917 102.454 82.925C102.554 82.9917 102.687 83.0917 102.854 83.225C103.021 83.3417 103.137 83.45 103.204 83.55C103.287 83.6833 103.287 83.8167 103.204 83.95C103.121 84.0833 103.037 84.2333 102.954 84.4ZM107.529 93.025C107.529 93.1083 107.479 93.1833 107.379 93.25C107.279 93.3 107.196 93.3667 107.129 93.45C106.996 93.6167 106.854 93.7667 106.704 93.9C106.571 94.0167 106.387 94.1333 106.154 94.25C105.987 94.3333 105.787 94.425 105.554 94.525C105.321 94.625 105.162 94.6917 105.079 94.725C104.179 94.9583 103.296 95.175 102.429 95.375C101.562 95.575 100.679 95.675 99.7789 95.675C99.6622 95.6083 99.5372 95.55 99.4039 95.5C99.2872 95.4333 99.2122 95.3667 99.1789 95.3C99.1622 95.2667 99.1289 95.25 99.0789 95.25C99.0289 95.2333 99.0372 95.2 99.1039 95.15C99.1539 95.1167 99.2539 95.0583 99.4039 94.975C99.5706 94.8917 99.6956 94.8333 99.7789 94.8C100.329 94.5833 100.921 94.375 101.554 94.175C102.187 93.9583 102.837 93.775 103.504 93.625C104.171 93.4583 104.846 93.325 105.529 93.225C106.212 93.1083 106.879 93.0417 107.529 93.025ZM130.027 95.425C129.877 95.6417 129.702 95.8833 129.502 96.15C129.302 96.4167 129.094 96.6917 128.877 96.975C128.66 97.2417 128.444 97.5167 128.227 97.8C128.01 98.0833 127.819 98.3417 127.652 98.575C127.935 98.4583 128.26 98.3417 128.627 98.225C128.994 98.125 129.294 98.0417 129.527 97.975C129.744 97.925 129.969 97.8917 130.202 97.875C130.452 97.8417 130.66 97.8833 130.827 98C130.91 98.05 130.977 98.075 131.027 98.075C131.094 98.075 131.169 98.1167 131.252 98.2C131.285 98.3333 131.302 98.45 131.302 98.55C131.319 98.6667 131.31 98.7917 131.277 98.925C131.244 99.0083 131.177 99.1 131.077 99.2C130.977 99.3 130.902 99.3833 130.852 99.45C130.602 99.8333 130.335 100.242 130.052 100.675C129.785 101.125 129.51 101.583 129.227 102.05C128.96 102.517 128.702 102.975 128.452 103.425C128.202 103.875 127.977 104.3 127.777 104.7C128.127 104.533 128.535 104.317 129.002 104.05C129.485 103.783 129.977 103.5 130.477 103.2C130.994 102.9 131.51 102.6 132.027 102.3C132.544 102.017 133.019 101.758 133.452 101.525C133.635 101.442 133.835 101.367 134.052 101.3C134.285 101.25 134.502 101.2 134.702 101.15C134.835 101.1 134.96 101.042 135.077 100.975C135.21 100.908 135.344 100.858 135.477 100.825C134.26 101.842 132.919 102.867 131.452 103.9C130.002 104.95 128.519 105.875 127.002 106.675C126.719 106.808 126.535 106.825 126.452 106.725C126.385 106.625 126.344 106.517 126.327 106.4C126.294 106.233 126.285 106.075 126.302 105.925C126.319 105.775 126.335 105.658 126.352 105.575C126.369 105.475 126.394 105.425 126.427 105.425C126.46 105.425 126.485 105.392 126.502 105.325C126.835 104.425 127.269 103.5 127.802 102.55C128.335 101.617 128.827 100.7 129.277 99.8C128.81 99.9333 128.252 100.117 127.602 100.35C126.952 100.583 126.277 100.833 125.577 101.1C125.494 100.917 125.452 100.783 125.452 100.7C125.452 100.633 125.444 100.483 125.427 100.25C125.444 100.15 125.494 100.067 125.577 100C125.66 99.95 125.719 99.8833 125.752 99.8C125.785 99.7167 125.819 99.6167 125.852 99.5C125.885 99.4 125.952 99.325 126.052 99.275C126.419 98.675 126.827 98.0417 127.277 97.375C127.727 96.6917 128.119 96.0833 128.452 95.55C128.252 95.5667 128.01 95.5917 127.727 95.625C127.444 95.6417 127.144 95.675 126.827 95.725C126.51 95.7583 126.185 95.8 125.852 95.85C125.535 95.8833 125.244 95.925 124.977 95.975C124.894 95.9417 124.794 95.875 124.677 95.775C124.577 95.675 124.477 95.6083 124.377 95.575C124.31 95.5417 124.227 95.5167 124.127 95.5C124.027 95.4667 123.969 95.4167 123.952 95.35C123.935 95.3 123.885 95.2167 123.802 95.1C123.719 94.9833 123.735 94.9 123.852 94.85C124.202 94.65 124.577 94.4917 124.977 94.375C125.377 94.2417 125.777 94.1333 126.177 94.05C126.594 93.9667 126.985 93.9083 127.352 93.875C127.735 93.8417 128.077 93.825 128.377 93.825C128.51 93.825 128.66 93.8333 128.827 93.85C129.01 93.85 129.16 93.8667 129.277 93.9C129.51 93.9667 129.694 94.0583 129.827 94.175C129.96 94.275 130.069 94.375 130.152 94.475C130.252 94.6083 130.31 94.7167 130.327 94.8C130.36 94.8833 130.36 94.9667 130.327 95.05C130.31 95.1167 130.269 95.1833 130.202 95.25C130.135 95.3 130.077 95.3583 130.027 95.425ZM122.177 82.85C122.177 82.6667 122.21 82.575 122.277 82.575C122.31 82.575 122.344 82.6 122.377 82.65C122.427 82.7 122.469 82.7333 122.502 82.75C122.535 82.7667 122.56 82.7833 122.577 82.8C122.61 82.8 122.644 82.8167 122.677 82.85C122.894 83.5333 123.044 84.2083 123.127 84.875C123.227 85.7083 123.269 86.5833 123.252 87.5C123.235 88.4167 123.169 89.3333 123.052 90.25C122.935 91.1667 122.769 92.0583 122.552 92.925C122.335 93.775 122.085 94.55 121.802 95.25C121.735 95.4 121.71 95.5917 121.727 95.825C121.744 96.0583 121.727 96.2417 121.677 96.375C121.594 96.4583 121.519 96.5083 121.452 96.525C121.385 96.5417 121.285 96.6083 121.152 96.725C121.035 96.825 120.885 96.825 120.702 96.725C120.535 96.625 120.385 96.5083 120.252 96.375C120.002 96.1417 119.802 95.85 119.652 95.5C119.519 95.15 119.419 94.8 119.352 94.45C119.302 94.0833 119.277 93.7333 119.277 93.4C119.294 93.05 119.327 92.7583 119.377 92.525C119.427 92.3417 119.502 92.1417 119.602 91.925C119.702 91.7083 119.835 91.4917 120.002 91.275C120.185 91.0583 120.402 90.85 120.652 90.65C120.919 90.45 121.235 90.275 121.602 90.125C121.719 89.025 121.819 87.8583 121.902 86.625C122.002 85.375 122.094 84.1167 122.177 82.85ZM129.352 82.95C129.452 83.35 129.502 83.8917 129.502 84.575C129.519 85.2583 129.502 86 129.452 86.8C129.402 87.6 129.335 88.425 129.252 89.275C129.169 90.1083 129.094 90.875 129.027 91.575C129.01 91.675 128.969 91.7667 128.902 91.85C128.835 91.9167 128.785 91.9917 128.752 92.075C128.685 92.2417 128.619 92.3667 128.552 92.45C128.485 92.5167 128.419 92.6333 128.352 92.8C127.902 91.3833 127.677 89.9083 127.677 88.375C127.694 86.8417 127.81 85.3667 128.027 83.95C128.044 83.8667 128.06 83.8083 128.077 83.775C128.094 83.7417 128.11 83.7167 128.127 83.7C128.16 83.6667 128.194 83.6417 128.227 83.625C128.277 83.5917 128.335 83.5417 128.402 83.475C128.485 83.3917 128.56 83.325 128.627 83.275C128.694 83.2083 128.76 83.15 128.827 83.1C128.86 83.0667 128.902 83.0417 128.952 83.025C129.002 82.9917 129.052 82.9583 129.102 82.925C129.152 82.8917 129.185 82.8667 129.202 82.85C129.235 82.8167 129.269 82.8 129.302 82.8L129.352 82.95ZM117.827 88.15C117.827 88.6 117.827 89.0417 117.827 89.475C117.827 89.9083 117.81 90.3583 117.777 90.825C117.76 91.275 117.719 91.7583 117.652 92.275C117.585 92.7917 117.494 93.3583 117.377 93.975C117.36 94.025 117.369 94.05 117.402 94.05C117.435 94.0333 117.469 94.0167 117.502 94C117.535 93.9667 117.569 93.95 117.602 93.95C117.635 93.9333 117.644 93.95 117.627 94C117.594 94.15 117.527 94.3667 117.427 94.65C117.344 94.9333 117.277 95.2083 117.227 95.475C117.177 95.475 117.119 95.4417 117.052 95.375C117.002 95.2917 116.952 95.2 116.902 95.1C116.852 95 116.802 94.9 116.752 94.8C116.702 94.7 116.66 94.6167 116.627 94.55C116.627 94.4833 116.594 94.4083 116.527 94.325C116.46 94.225 116.427 94.1417 116.427 94.075C116.394 92.925 116.369 91.7833 116.352 90.65C116.335 89.5 116.36 88.35 116.427 87.2C116.444 87.1167 116.469 87.0333 116.502 86.95C116.552 86.85 116.61 86.7417 116.677 86.625C116.71 86.5583 116.752 86.5 116.802 86.45C116.852 86.4 116.877 86.325 116.877 86.225C117.11 86.225 117.269 86.2583 117.352 86.325C117.452 86.3917 117.519 86.4917 117.552 86.625C117.569 86.7083 117.569 86.8083 117.552 86.925C117.535 87.025 117.527 87.1333 117.527 87.25C117.527 87.3833 117.552 87.5083 117.602 87.625C117.652 87.725 117.702 87.8167 117.752 87.9C117.802 87.9667 117.827 88.05 117.827 88.15ZM120.152 93.275C120.169 93.6583 120.235 94.0583 120.352 94.475C120.469 94.875 120.594 95.1917 120.727 95.425C120.994 94.525 121.219 93.3333 121.402 91.85C121.052 92.0333 120.76 92.25 120.527 92.5C120.294 92.75 120.169 93.0083 120.152 93.275ZM137.424 87.225C137.524 87.625 137.483 88.0333 137.299 88.45C137.133 88.8667 136.908 89.2667 136.624 89.65C136.341 90.0333 136.033 90.3917 135.699 90.725C135.383 91.0417 135.116 91.3083 134.899 91.525C135.383 91.4083 135.833 91.325 136.249 91.275C136.683 91.225 137.041 91.2167 137.324 91.25C137.408 91.2667 137.508 91.2833 137.624 91.3C137.758 91.3 137.858 91.3167 137.924 91.35C138.008 91.3833 138.049 91.425 138.049 91.475C138.066 91.5083 138.091 91.5583 138.124 91.625C138.174 91.775 138.216 91.9 138.249 92C138.299 92.1 138.308 92.2083 138.274 92.325C138.241 92.4083 138.191 92.5 138.124 92.6C138.058 92.6833 137.999 92.7583 137.949 92.825C137.433 93.575 136.891 94.3333 136.324 95.1C135.758 95.8667 135.266 96.675 134.849 97.525C135.649 97.2083 136.458 96.7917 137.274 96.275C138.091 95.7583 138.849 95.225 139.549 94.675C140.249 94.125 140.874 93.6083 141.424 93.125C141.974 92.6417 142.391 92.275 142.674 92.025C142.674 92.1083 142.608 92.25 142.474 92.45C142.358 92.65 142.283 92.7917 142.249 92.875C142.116 93.175 141.983 93.4 141.849 93.55C141.716 93.6833 141.583 93.9 141.449 94.2C141.249 94.45 141.016 94.7417 140.749 95.075C140.483 95.4083 140.233 95.7083 139.999 95.975C139.666 96.3417 139.316 96.7 138.949 97.05C138.583 97.4 138.191 97.725 137.774 98.025C137.374 98.325 136.958 98.5917 136.524 98.825C136.091 99.0583 135.641 99.2333 135.174 99.35C135.074 99.3833 134.974 99.3833 134.874 99.35C134.791 99.3167 134.699 99.2833 134.599 99.25C134.499 99.2167 134.383 99.1917 134.249 99.175C134.133 99.1583 134.041 99.1083 133.974 99.025C133.924 98.9417 133.899 98.8583 133.899 98.775C133.916 98.6917 133.924 98.5833 133.924 98.45C133.941 98.1167 134.033 97.7083 134.199 97.225C134.383 96.725 134.583 96.2167 134.799 95.7C135.033 95.1833 135.266 94.7 135.499 94.25C135.733 93.7833 135.916 93.4083 136.049 93.125C135.916 93.1417 135.758 93.175 135.574 93.225C135.391 93.2583 135.191 93.3 134.974 93.35C134.774 93.4 134.566 93.45 134.349 93.5C134.149 93.5333 133.966 93.5667 133.799 93.6C133.716 93.6333 133.641 93.6333 133.574 93.6C133.508 93.5667 133.433 93.525 133.349 93.475C133.283 93.4417 133.191 93.4 133.074 93.35C132.974 93.3 132.908 93.2333 132.874 93.15C132.858 93.1 132.866 93.0583 132.899 93.025C132.933 92.975 132.949 92.9167 132.949 92.85C132.949 92.7833 132.983 92.7 133.049 92.6C133.116 92.4833 133.191 92.375 133.274 92.275C133.374 92.1583 133.466 92.0583 133.549 91.975C133.633 91.8917 133.699 91.825 133.749 91.775C133.949 91.5083 134.158 91.2083 134.374 90.875C134.608 90.5417 134.816 90.2083 134.999 89.875C135.183 89.5417 135.341 89.225 135.474 88.925C135.608 88.6083 135.691 88.3333 135.724 88.1C135.724 88.0167 135.649 87.975 135.499 87.975C135.349 87.9583 135.166 87.9667 134.949 88C134.733 88.0333 134.499 88.0833 134.249 88.15C134.016 88.2 133.816 88.25 133.649 88.3C133.516 88.2833 133.349 88.2083 133.149 88.075C132.966 87.9417 132.833 87.825 132.749 87.725C132.666 87.6417 132.624 87.575 132.624 87.525C132.624 87.4583 132.616 87.4167 132.599 87.4C132.499 87.2667 132.558 87.1417 132.774 87.025C132.874 86.9583 133.033 86.8833 133.249 86.8C133.466 86.7 133.699 86.6083 133.949 86.525C134.216 86.4417 134.483 86.3667 134.749 86.3C135.016 86.2333 135.241 86.1917 135.424 86.175C135.524 86.1583 135.658 86.1667 135.824 86.2C135.991 86.2167 136.166 86.2667 136.349 86.35C136.433 86.3833 136.541 86.4583 136.674 86.575C136.824 86.6917 136.941 86.775 137.024 86.825C137.158 86.9083 137.241 86.9667 137.274 87C137.308 87.0167 137.358 87.0917 137.424 87.225ZM144.874 87.925C144.941 88.5083 144.983 89.1667 144.999 89.9C145.033 90.6167 145.041 91.3583 145.024 92.125C145.024 92.8917 145.008 93.65 144.974 94.4C144.958 95.1333 144.933 95.8083 144.899 96.425C144.883 97.0417 144.858 97.5583 144.824 97.975C144.808 98.3917 144.799 98.6667 144.799 98.8C144.449 98.3333 144.191 97.6833 144.024 96.85C143.874 96 143.783 95.075 143.749 94.075C143.733 93.075 143.758 92.05 143.824 91C143.891 89.9333 143.974 88.9417 144.074 88.025C144.058 87.9583 144.083 87.9083 144.149 87.875C144.233 87.825 144.316 87.7667 144.399 87.7C144.449 87.6667 144.499 87.6167 144.549 87.55C144.599 87.4833 144.641 87.45 144.674 87.45C144.774 87.4333 144.824 87.4917 144.824 87.625C144.841 87.7417 144.858 87.8417 144.874 87.925ZM149.407 90.7C149.324 91.6 149.224 92.5667 149.107 93.6C149.007 94.6167 148.941 95.575 148.907 96.475C149.774 96.125 150.799 95.675 151.982 95.125C153.182 94.5583 154.382 93.8917 155.582 93.125C155.666 93.075 155.774 93.0083 155.907 92.925C156.041 92.825 156.124 92.7917 156.157 92.825C156.174 92.8583 156.141 92.9333 156.057 93.05C155.974 93.1667 155.932 93.2417 155.932 93.275C155.932 93.475 155.882 93.6583 155.782 93.825C155.682 93.9917 155.557 94.1667 155.407 94.35C155.257 94.5333 155.099 94.7333 154.932 94.95C154.766 95.1667 154.616 95.425 154.482 95.725C154.166 95.9917 153.774 96.2833 153.307 96.6C152.841 96.9167 152.349 97.225 151.832 97.525C151.332 97.8083 150.841 98.0667 150.357 98.3C149.874 98.5333 149.474 98.7 149.157 98.8C148.991 98.7833 148.874 98.725 148.807 98.625C148.741 98.525 148.649 98.425 148.532 98.325C148.449 98.2417 148.341 98.175 148.207 98.125C148.091 98.075 148.007 98.0083 147.957 97.925C147.791 97.625 147.699 97.325 147.682 97.025C147.649 96.5583 147.649 96.0417 147.682 95.475C147.716 94.8917 147.774 94.3 147.857 93.7C147.941 93.1 148.041 92.5083 148.157 91.925C148.291 91.325 148.432 90.7583 148.582 90.225C148.582 90.2083 148.591 90.1917 148.607 90.175C148.474 90.175 148.349 90.175 148.232 90.175C148.116 90.175 147.999 90.1667 147.882 90.15C147.266 90.1333 146.891 89.9917 146.757 89.725C146.624 89.475 146.624 89.3333 146.757 89.3C146.891 89.2667 147.016 89.25 147.132 89.25C148.282 89.25 149.366 89.325 150.382 89.475C151.416 89.6083 152.457 89.7833 153.507 90L154.057 90.225C153.757 90.4417 153.449 90.55 153.132 90.55C152.832 90.55 152.641 90.5417 152.557 90.525C151.424 90.375 150.357 90.275 149.357 90.225C149.391 90.3083 149.407 90.3917 149.407 90.475C149.407 90.5417 149.407 90.6167 149.407 90.7ZM162.507 91.125C162.507 91.1917 162.424 91.3083 162.257 91.475C162.224 91.5083 162.199 91.5417 162.182 91.575C162.166 91.6083 162.141 91.6417 162.107 91.675C162.057 91.7083 162.007 91.7417 161.957 91.775C161.907 91.8083 161.841 91.8333 161.757 91.85C161.591 91.8833 161.366 91.9167 161.082 91.95C160.799 91.9833 160.491 92.025 160.157 92.075C159.824 92.1083 159.482 92.15 159.132 92.2C158.799 92.25 158.491 92.3083 158.207 92.375L158.382 98.175C158.166 98.0417 158.024 97.85 157.957 97.6C157.907 97.3333 157.824 97.075 157.707 96.825C157.624 96.6583 157.532 96.5 157.432 96.35C157.349 96.2 157.266 96.05 157.182 95.9C157.116 95.75 157.049 95.5917 156.982 95.425C156.932 95.2417 156.899 95.0333 156.882 94.8C156.832 94.2 156.799 93.5417 156.782 92.825C156.782 92.0917 156.791 91.3667 156.807 90.65C156.841 89.9333 156.882 89.25 156.932 88.6C156.982 87.9333 157.032 87.3583 157.082 86.875C157.099 86.775 157.099 86.6833 157.082 86.6C157.066 86.5 157.066 86.4083 157.082 86.325L157.257 85.775C157.341 85.425 157.491 85.3083 157.707 85.425C157.824 85.4917 157.899 85.625 157.932 85.825C157.982 86.0083 158.007 86.15 158.007 86.25L158.157 91.225C158.507 91.1583 158.882 91.1083 159.282 91.075C159.699 91.025 160.107 90.9917 160.507 90.975C160.907 90.9583 161.282 90.9667 161.632 91C161.982 91.0167 162.274 91.0583 162.507 91.125Z" fill="white"/>
<line x1="0.00201611" y1="78.5" x2="248.002" y2="79.5" stroke="white"/>
</svg>
