<svg width="39" height="19" viewBox="0 0 39 19" fill="none" xmlns="http://www.w3.org/2000/svg">
<path d="M3.825 7.34C3.855 7.39 3.865 7.44 3.855 7.49C3.855 7.53 3.85 7.565 3.84 7.595C3.76 7.685 3.695 7.745 3.645 7.775C3.595 7.805 3.51 7.85 3.39 7.91C3.36 7.93 3.33 7.95 3.3 7.97C3.28 7.99 3.255 8 3.225 8C3.175 8 3.095 7.96 2.985 7.88C2.885 7.8 2.775 7.72 2.655 7.64C2.535 7.56 2.405 7.5 2.265 7.46C2.135 7.42 2.015 7.435 1.905 7.505C1.795 7.655 1.69 7.85 1.59 8.09C1.49 8.32 1.41 8.565 1.35 8.825C1.3 9.085 1.285 9.35 1.305 9.62C1.325 9.89 1.405 10.14 1.545 10.37C2.125 10.43 2.64 10.335 3.09 10.085C3.54 9.825 3.955 9.505 4.335 9.125C4.335 9.195 4.315 9.26 4.275 9.32C4.245 9.37 4.215 9.425 4.185 9.485C4.145 9.575 4.1 9.665 4.05 9.755C4.01 9.835 3.95 9.915 3.87 9.995C3.73 10.145 3.57 10.29 3.39 10.43C3.22 10.57 3.035 10.695 2.835 10.805C2.645 10.905 2.445 10.98 2.235 11.03C2.035 11.09 1.835 11.11 1.635 11.09C1.525 11.08 1.445 11.05 1.395 11C1.355 10.96 1.28 10.915 1.17 10.865C1.11 10.825 1.03 10.79 0.93 10.76C0.84 10.73 0.77 10.69 0.72 10.64C0.62 10.52 0.545 10.375 0.495 10.205C0.425 9.985 0.39 9.745 0.39 9.485C0.39 9.225 0.405 8.975 0.435 8.735C0.475 8.485 0.525 8.26 0.585 8.06C0.655 7.86 0.715 7.705 0.765 7.595C0.825 7.465 0.915 7.355 1.035 7.265C1.155 7.165 1.285 7.075 1.425 6.995C1.575 6.915 1.725 6.84 1.875 6.77C2.025 6.7 2.165 6.635 2.295 6.575C2.805 6.575 3.315 6.83 3.825 7.34ZM8.87426 6.575C9.00426 6.895 9.12426 7.24 9.23426 7.61C9.35426 7.98 9.43426 8.35 9.47426 8.72C9.52426 9.08 9.52426 9.43 9.47426 9.77C9.43426 10.11 9.31926 10.405 9.12926 10.655C9.04926 10.755 8.95426 10.795 8.84426 10.775C8.80426 10.765 8.76926 10.74 8.73926 10.7C8.70926 10.66 8.66926 10.625 8.61926 10.595C8.57926 10.565 8.53426 10.54 8.48426 10.52C8.44426 10.5 8.40426 10.46 8.36426 10.4C8.21426 10.45 8.06426 10.525 7.91426 10.625C7.77426 10.715 7.62926 10.81 7.47926 10.91C7.32926 11.01 7.17426 11.105 7.01426 11.195C6.85426 11.295 6.68926 11.365 6.51926 11.405C6.33926 11.455 6.20426 11.445 6.11426 11.375C6.03426 11.315 5.94426 11.245 5.84426 11.165C5.77426 11.105 5.72926 11.065 5.70926 11.045C5.68926 11.035 5.66926 10.975 5.64926 10.865C5.61926 10.645 5.61426 10.41 5.63426 10.16C5.66426 9.9 5.72426 9.64 5.81426 9.38C6.06426 8.62 6.57426 8.11 7.34426 7.85C7.43426 7.82 7.52426 7.815 7.61426 7.835C7.71426 7.845 7.80926 7.87 7.89926 7.91C7.98926 7.95 8.07426 8 8.15426 8.06C8.24426 8.12 8.32426 8.18 8.39426 8.24L8.63426 8.435C8.68426 8.265 8.67926 8.085 8.61926 7.895C8.56926 7.695 8.48926 7.51 8.37926 7.34C8.26926 7.16 8.14426 7 8.00426 6.86C7.86426 6.72 7.72926 6.625 7.59926 6.575C7.08926 6.575 6.62926 6.695 6.21926 6.935C5.81926 7.165 5.42926 7.47 5.04926 7.85C5.02926 7.87 5.00426 7.885 4.97426 7.895C4.95426 7.905 4.93426 7.915 4.91426 7.925C4.88426 7.945 4.84926 7.95 4.80926 7.94C4.77926 7.93 4.77426 7.9 4.79426 7.85C4.85426 7.53 4.97426 7.245 5.15426 6.995C5.33426 6.735 5.54426 6.51 5.78426 6.32C6.02426 6.13 6.27926 5.97 6.54926 5.84C6.81926 5.71 7.08426 5.615 7.34426 5.555C7.38426 5.535 7.41926 5.525 7.44926 5.525C7.48926 5.515 7.53426 5.51 7.58426 5.51C7.65426 5.51 7.71926 5.53 7.77926 5.57C7.83926 5.61 7.90926 5.655 7.98926 5.705C8.08926 5.755 8.18926 5.815 8.28926 5.885C8.38926 5.945 8.47926 6.02 8.55926 6.11C8.62926 6.19 8.68926 6.27 8.73926 6.35C8.78926 6.43 8.83426 6.505 8.87426 6.575ZM8.36426 9.245C8.30426 9.115 8.20926 8.995 8.07926 8.885C7.95926 8.775 7.81926 8.695 7.65926 8.645C7.49926 8.585 7.32426 8.57 7.13426 8.6C6.95426 8.63 6.76926 8.72 6.57926 8.87C6.51926 9 6.45926 9.145 6.39926 9.305C6.33926 9.455 6.29426 9.61 6.26426 9.77C6.23426 9.92 6.21926 10.075 6.21926 10.235C6.22926 10.385 6.26426 10.525 6.32426 10.655C6.70426 10.525 7.07426 10.375 7.43426 10.205C7.79426 10.035 8.10426 9.885 8.36426 9.755C8.42426 9.695 8.45926 9.645 8.46926 9.605C8.47926 9.565 8.47426 9.53 8.45426 9.5C8.44426 9.47 8.42426 9.435 8.39426 9.395C8.37426 9.355 8.36426 9.305 8.36426 9.245ZM15.1945 6.155C15.1945 6.245 15.2095 6.36 15.2395 6.5C15.2695 6.63 15.2595 6.735 15.2095 6.815C15.1895 6.835 15.1795 6.875 15.1795 6.935C15.1795 6.985 15.1645 7.02 15.1345 7.04L14.9395 6.92C14.7795 6.84 14.5995 6.805 14.3995 6.815C14.2095 6.825 14.0145 6.87 13.8145 6.95C13.6745 7.01 13.5345 7.095 13.3945 7.205C13.2645 7.305 13.1395 7.42 13.0195 7.55C12.8995 7.68 12.7895 7.815 12.6895 7.955C12.5895 8.095 12.5045 8.23 12.4345 8.36C12.2745 8.65 12.1945 9 12.1945 9.41C12.2045 9.82 12.3545 10.35 12.6445 11C12.6445 11.07 12.5945 11.155 12.4945 11.255C12.4745 11.275 12.4495 11.305 12.4195 11.345C12.3895 11.385 12.3645 11.415 12.3445 11.435C12.2645 11.505 12.2145 11.565 12.1945 11.615C12.1845 11.665 12.1545 11.7 12.1045 11.72C12.0245 11.75 11.9495 11.68 11.8795 11.51C11.7095 11.21 11.5445 10.845 11.3845 10.415C11.2345 9.975 11.0895 9.525 10.9495 9.065C10.8195 8.605 10.6995 8.165 10.5895 7.745C10.4895 7.315 10.4095 6.955 10.3495 6.665C10.3195 6.585 10.3145 6.51 10.3345 6.44C10.3545 6.36 10.3845 6.295 10.4245 6.245C10.4545 6.205 10.4895 6.195 10.5295 6.215C10.5795 6.235 10.6195 6.245 10.6495 6.245C10.7795 6.245 10.8595 6.27 10.8895 6.32C10.9195 6.37 10.9695 6.435 11.0395 6.515C11.1795 6.675 11.2895 6.89 11.3695 7.16C11.4495 7.43 11.5495 7.75 11.6695 8.12C11.8295 7.85 12.0345 7.59 12.2845 7.34C12.5445 7.09 12.8245 6.865 13.1245 6.665C13.4245 6.455 13.7345 6.285 14.0545 6.155C14.3745 6.025 14.6845 5.945 14.9845 5.915C15.0445 5.905 15.0945 5.925 15.1345 5.975C15.1845 6.015 15.2045 6.075 15.1945 6.155ZM24.8039 6.155C24.8039 6.245 24.8189 6.36 24.8489 6.5C24.8789 6.63 24.8689 6.735 24.8189 6.815C24.7989 6.835 24.7889 6.875 24.7889 6.935C24.7889 6.985 24.7739 7.02 24.7439 7.04L24.5489 6.92C24.3889 6.84 24.2089 6.805 24.0089 6.815C23.8189 6.825 23.6239 6.87 23.4239 6.95C23.2839 7.01 23.1439 7.095 23.0039 7.205C22.8739 7.305 22.7489 7.42 22.6289 7.55C22.5089 7.68 22.3989 7.815 22.2989 7.955C22.1989 8.095 22.1139 8.23 22.0439 8.36C21.8839 8.65 21.8039 9 21.8039 9.41C21.8139 9.82 21.9639 10.35 22.2539 11C22.2539 11.07 22.2039 11.155 22.1039 11.255C22.0839 11.275 22.0589 11.305 22.0289 11.345C21.9989 11.385 21.9739 11.415 21.9539 11.435C21.8739 11.505 21.8239 11.565 21.8039 11.615C21.7939 11.665 21.7639 11.7 21.7139 11.72C21.6339 11.75 21.5589 11.68 21.4889 11.51C21.3189 11.21 21.1539 10.845 20.9939 10.415C20.8439 9.975 20.6989 9.525 20.5589 9.065C20.4289 8.605 20.3089 8.165 20.1989 7.745C20.0989 7.315 20.0189 6.955 19.9589 6.665C19.9289 6.585 19.9239 6.51 19.9439 6.44C19.9639 6.36 19.9939 6.295 20.0339 6.245C20.0639 6.205 20.0989 6.195 20.1389 6.215C20.1889 6.235 20.2289 6.245 20.2589 6.245C20.3889 6.245 20.4689 6.27 20.4989 6.32C20.5289 6.37 20.5789 6.435 20.6489 6.515C20.7889 6.675 20.8989 6.89 20.9789 7.16C21.0589 7.43 21.1589 7.75 21.2789 8.12C21.4389 7.85 21.6439 7.59 21.8939 7.34C22.1539 7.09 22.4339 6.865 22.7339 6.665C23.0339 6.455 23.3439 6.285 23.6639 6.155C23.9839 6.025 24.2939 5.945 24.5939 5.915C24.6539 5.905 24.7039 5.925 24.7439 5.975C24.7939 6.015 24.8139 6.075 24.8039 6.155ZM27.4192 6.065C27.4992 6.145 27.5292 6.21 27.5092 6.26C27.4992 6.31 27.4692 6.33 27.4192 6.32C27.2892 6.32 27.1442 6.335 26.9842 6.365C26.8342 6.385 26.6692 6.405 26.4892 6.425C26.3192 6.435 26.1392 6.435 25.9492 6.425C25.7592 6.415 25.5692 6.38 25.3792 6.32C25.2992 6.24 25.2992 6.17 25.3792 6.11C25.4692 6.04 25.5392 5.94 25.5892 5.81C25.6192 5.72 25.6592 5.66 25.7092 5.63C25.7692 5.59 25.8292 5.565 25.8892 5.555C25.9992 5.555 26.1342 5.58 26.2942 5.63C26.4642 5.67 26.6042 5.695 26.7142 5.705C26.8842 5.725 27.0242 5.755 27.1342 5.795C27.2442 5.825 27.3392 5.915 27.4192 6.065ZM27.1042 8.105C27.1642 8.335 27.2092 8.545 27.2392 8.735C27.2792 8.925 27.3042 9.11 27.3142 9.29C27.3342 9.46 27.3442 9.635 27.3442 9.815C27.3542 9.995 27.3592 10.19 27.3592 10.4C27.3592 10.44 27.3342 10.485 27.2842 10.535C27.2442 10.575 27.2142 10.62 27.1942 10.67C27.1542 10.76 27.1192 10.815 27.0892 10.835C27.0692 10.855 27.0292 10.88 26.9692 10.91C26.8292 10.97 26.7042 11.055 26.5942 11.165C26.4642 10.975 26.3742 10.755 26.3242 10.505C26.2842 10.255 26.2542 9.995 26.2342 9.725C26.2242 9.455 26.2092 9.185 26.1892 8.915C26.1792 8.635 26.1442 8.365 26.0842 8.105C26.0542 7.965 26.0642 7.87 26.1142 7.82C26.1642 7.77 26.2192 7.735 26.2792 7.715C26.3492 7.695 26.4242 7.71 26.5042 7.76C26.5942 7.81 26.6792 7.86 26.7592 7.91C26.8292 7.95 26.8942 7.975 26.9542 7.985C27.0242 7.985 27.0742 8.025 27.1042 8.105ZM33.3732 6.155C33.3732 6.245 33.3882 6.36 33.4182 6.5C33.4482 6.63 33.4382 6.735 33.3882 6.815C33.3682 6.835 33.3582 6.875 33.3582 6.935C33.3582 6.985 33.3432 7.02 33.3132 7.04L33.1182 6.92C32.9582 6.84 32.7782 6.805 32.5782 6.815C32.3882 6.825 32.1932 6.87 31.9932 6.95C31.8532 7.01 31.7132 7.095 31.5732 7.205C31.4432 7.305 31.3182 7.42 31.1982 7.55C31.0782 7.68 30.9682 7.815 30.8682 7.955C30.7682 8.095 30.6832 8.23 30.6132 8.36C30.4532 8.65 30.3732 9 30.3732 9.41C30.3832 9.82 30.5332 10.35 30.8232 11C30.8232 11.07 30.7732 11.155 30.6732 11.255C30.6532 11.275 30.6282 11.305 30.5982 11.345C30.5682 11.385 30.5432 11.415 30.5232 11.435C30.4432 11.505 30.3932 11.565 30.3732 11.615C30.3632 11.665 30.3332 11.7 30.2832 11.72C30.2032 11.75 30.1282 11.68 30.0582 11.51C29.8882 11.21 29.7232 10.845 29.5632 10.415C29.4132 9.975 29.2682 9.525 29.1282 9.065C28.9982 8.605 28.8782 8.165 28.7682 7.745C28.6682 7.315 28.5882 6.955 28.5282 6.665C28.4982 6.585 28.4932 6.51 28.5132 6.44C28.5332 6.36 28.5632 6.295 28.6032 6.245C28.6332 6.205 28.6682 6.195 28.7082 6.215C28.7582 6.235 28.7982 6.245 28.8282 6.245C28.9582 6.245 29.0382 6.27 29.0682 6.32C29.0982 6.37 29.1482 6.435 29.2182 6.515C29.3582 6.675 29.4682 6.89 29.5482 7.16C29.6282 7.43 29.7282 7.75 29.8482 8.12C30.0082 7.85 30.2132 7.59 30.4632 7.34C30.7232 7.09 31.0032 6.865 31.3032 6.665C31.6032 6.455 31.9132 6.285 32.2332 6.155C32.5532 6.025 32.8632 5.945 33.1632 5.915C33.2232 5.905 33.2732 5.925 33.3132 5.975C33.3632 6.015 33.3832 6.075 33.3732 6.155ZM37.9985 6.965C37.9985 7.665 38.0035 8.315 38.0135 8.915C38.0335 9.515 38.0935 10.105 38.1935 10.685C38.2035 10.745 38.1885 10.81 38.1485 10.88C38.1085 10.95 38.0685 11.01 38.0285 11.06C37.9685 11.13 37.9135 11.195 37.8635 11.255C37.8135 11.325 37.7635 11.37 37.7135 11.39C37.6135 11.44 37.5535 11.45 37.5335 11.42C37.5135 11.39 37.4985 11.35 37.4885 11.3C37.4485 11.11 37.3935 10.855 37.3235 10.535C37.2635 10.205 37.2235 9.875 37.2035 9.545C37.0835 9.745 36.9485 9.95 36.7985 10.16C36.6585 10.36 36.5035 10.545 36.3335 10.715C36.1735 10.885 36.0085 11.035 35.8385 11.165C35.6685 11.305 35.5035 11.405 35.3435 11.465C35.2735 11.495 35.2235 11.5 35.1935 11.48C35.1735 11.46 35.1335 11.44 35.0735 11.42C34.9835 11.38 34.8935 11.34 34.8035 11.3C34.7235 11.27 34.6585 11.22 34.6085 11.15C34.4985 10.96 34.4085 10.775 34.3385 10.595C34.2285 10.305 34.1585 10 34.1285 9.68C34.1085 9.36 34.1085 9.04 34.1285 8.72C34.1485 8.4 34.1835 8.09 34.2335 7.79C34.2835 7.49 34.3335 7.215 34.3835 6.965C34.3935 6.915 34.4185 6.885 34.4585 6.875C34.4985 6.855 34.5235 6.82 34.5335 6.77C34.5535 6.69 34.5885 6.635 34.6385 6.605C34.6985 6.575 34.7585 6.55 34.8185 6.53C34.8985 6.51 34.9585 6.495 34.9985 6.485C35.0485 6.465 35.1135 6.455 35.1935 6.455C35.1035 6.745 35.0335 7.075 34.9835 7.445C34.9335 7.815 34.9085 8.195 34.9085 8.585C34.9185 8.965 34.9535 9.335 35.0135 9.695C35.0835 10.055 35.1835 10.37 35.3135 10.64C35.5035 10.51 35.6885 10.35 35.8685 10.16C36.0585 9.97 36.2335 9.775 36.3935 9.575C36.5535 9.365 36.6935 9.165 36.8135 8.975C36.9435 8.785 37.0385 8.625 37.0985 8.495C37.1585 8.295 37.1935 8.07 37.2035 7.82C37.2235 7.56 37.2335 7.33 37.2335 7.13C37.2235 7.04 37.2285 6.97 37.2485 6.92C37.2785 6.87 37.3085 6.815 37.3385 6.755C37.3585 6.725 37.3685 6.695 37.3685 6.665C37.3785 6.635 37.3985 6.61 37.4285 6.59C37.4485 6.57 37.4685 6.545 37.4885 6.515C37.5185 6.475 37.5485 6.455 37.5785 6.455C37.6385 6.455 37.6785 6.485 37.6985 6.545C37.7185 6.605 37.7485 6.65 37.7885 6.68C37.8385 6.73 37.8835 6.77 37.9235 6.8C37.9735 6.82 37.9985 6.875 37.9985 6.965Z" fill="black"/>
<path d="M11.57 17.025C11.6033 16.7417 11.6717 16.485 11.775 16.255C11.8783 16.025 12.01 15.805 12.17 15.595C12.0933 15.605 12.0133 15.62 11.93 15.64C11.8467 15.66 11.7633 15.6833 11.68 15.71C11.5967 15.7333 11.5183 15.7583 11.445 15.785C11.3717 15.8083 11.31 15.83 11.26 15.85C11.2367 15.86 11.2233 15.86 11.22 15.85C11.2167 15.84 11.21 15.8383 11.2 15.845L11.135 15.835C11.1283 15.8183 11.12 15.805 11.11 15.795C11.1 15.785 11.0933 15.7717 11.09 15.755C11.0867 15.7317 11.09 15.7067 11.1 15.68C11.1733 15.62 11.255 15.5667 11.345 15.52C11.4383 15.47 11.5317 15.4283 11.625 15.395C11.7217 15.3583 11.815 15.33 11.905 15.31C11.9983 15.29 12.0833 15.28 12.16 15.28C12.2033 15.28 12.2383 15.29 12.265 15.31C12.2817 15.32 12.2933 15.3383 12.3 15.365C12.3067 15.3883 12.3133 15.41 12.32 15.43C12.3267 15.4467 12.3383 15.4667 12.355 15.49C12.3717 15.51 12.38 15.53 12.38 15.55L12.335 15.61C12.2183 15.83 12.1233 16.0383 12.05 16.235C11.98 16.4283 11.9233 16.62 11.88 16.81C11.8733 16.84 11.8617 16.865 11.845 16.885C11.8317 16.9017 11.8217 16.9233 11.815 16.95C11.815 16.9633 11.8083 16.9817 11.795 17.005C11.785 17.0317 11.7717 17.05 11.755 17.06C11.735 17.0733 11.7183 17.0833 11.705 17.09C11.6917 17.0967 11.6767 17.1 11.66 17.1C11.6533 17.1 11.6367 17.1017 11.61 17.105C11.5867 17.1117 11.57 17.1117 11.56 17.105L11.57 17.025ZM13.515 15.51C13.515 15.6033 13.515 15.6883 13.515 15.765C13.5183 15.8383 13.52 15.9067 13.52 15.97C13.6433 15.9433 13.7683 15.9183 13.895 15.895C14.025 15.8683 14.1517 15.86 14.275 15.87C14.2683 15.89 14.2483 15.9067 14.215 15.92C14.1817 15.93 14.1567 15.9417 14.14 15.955C14.1233 15.9717 14.1083 15.9833 14.095 15.99C14.0817 15.9933 14.0667 16 14.05 16.01C13.9733 16.0267 13.8867 16.0467 13.79 16.07C13.6967 16.09 13.6083 16.1117 13.525 16.135C13.5283 16.2217 13.5317 16.2983 13.535 16.365C13.5383 16.4283 13.5417 16.49 13.545 16.55C13.5483 16.61 13.5517 16.67 13.555 16.73C13.5583 16.7867 13.5633 16.8517 13.57 16.925C13.5567 16.925 13.5367 16.9183 13.51 16.905C13.4833 16.8917 13.4567 16.875 13.43 16.855C13.3967 16.8317 13.3733 16.81 13.36 16.79C13.35 16.7667 13.34 16.7383 13.33 16.705C13.3233 16.6817 13.31 16.6567 13.29 16.63C13.27 16.6033 13.2567 16.5783 13.25 16.555C13.2267 16.4417 13.2117 16.3233 13.205 16.2C13.1983 16.0733 13.1967 15.9483 13.2 15.825C13.2033 15.6983 13.21 15.5767 13.22 15.46C13.23 15.34 13.24 15.2283 13.25 15.125C13.26 15.0917 13.2717 15.075 13.285 15.075C13.295 15.075 13.3067 15.0883 13.32 15.115C13.3367 15.1417 13.3533 15.1717 13.37 15.205L13.405 15.28C13.4183 15.3067 13.4283 15.3267 13.435 15.34C13.4417 15.3533 13.4467 15.365 13.45 15.375C13.4567 15.3817 13.4633 15.3883 13.47 15.395L13.495 15.42C13.5017 15.4267 13.5067 15.4367 13.51 15.45C13.5133 15.46 13.515 15.48 13.515 15.51ZM12.465 16.555C12.4983 16.7683 12.545 16.9867 12.605 17.21C12.6683 17.4367 12.7283 17.64 12.785 17.82C12.7917 17.8333 12.79 17.8417 12.78 17.845C12.7733 17.8483 12.77 17.855 12.77 17.865C12.7633 17.8717 12.7617 17.8833 12.765 17.9C12.7717 17.9167 12.77 17.9333 12.76 17.95C12.7533 17.96 12.7467 17.9717 12.74 17.985C12.7367 17.9983 12.7317 18.0083 12.725 18.015L12.67 17.975C12.6033 17.845 12.545 17.7033 12.495 17.55C12.4483 17.4 12.41 17.245 12.38 17.085C12.35 16.9283 12.3283 16.7733 12.315 16.62C12.3017 16.4633 12.2967 16.315 12.3 16.175L12.42 16.37C12.4433 16.4433 12.4583 16.505 12.465 16.555ZM12.115 14.995C12.115 15.0217 12.11 15.0483 12.1 15.075C12.0933 15.0983 12.0867 15.115 12.08 15.125C12.0667 15.1417 12.0567 15.16 12.05 15.18C12.0467 15.2 12.0417 15.21 12.035 15.21C12.0317 15.21 12.0267 15.2067 12.02 15.2C12.0133 15.1933 12.0083 15.19 12.005 15.19C12.0017 15.19 11.9983 15.1883 11.995 15.185C11.9917 15.185 11.9883 15.1833 11.985 15.18C11.9617 15.09 11.9433 14.995 11.93 14.895C11.92 14.795 11.9183 14.6967 11.925 14.6C11.9317 14.5 11.9467 14.4067 11.97 14.32C11.9933 14.23 12.0283 14.15 12.075 14.08C12.0817 14.08 12.0883 14.075 12.095 14.065C12.105 14.0517 12.1117 14.0467 12.115 14.05C12.1217 14.0567 12.1317 14.065 12.145 14.075C12.1617 14.0817 12.1733 14.0867 12.18 14.09C12.1967 14.0967 12.2117 14.12 12.225 14.16C12.2383 14.2 12.2483 14.225 12.255 14.235C12.2383 14.285 12.2217 14.3433 12.205 14.41C12.1917 14.4733 12.1783 14.54 12.165 14.61C12.1517 14.68 12.14 14.7483 12.13 14.815C12.1233 14.8817 12.1183 14.9417 12.115 14.995ZM15.8058 16.94C15.8058 17.0133 15.7724 17.0933 15.7058 17.18C15.6391 17.27 15.5441 17.3733 15.4208 17.49C15.4308 17.4833 15.4441 17.4767 15.4608 17.47C15.4774 17.4633 15.4974 17.455 15.5208 17.445C15.5741 17.425 15.6291 17.41 15.6858 17.4C15.7124 17.3933 15.7458 17.39 15.7858 17.39C15.8258 17.3933 15.8591 17.3983 15.8858 17.405C15.9358 17.4217 15.9674 17.4417 15.9808 17.465C15.9874 17.4783 15.9858 17.4917 15.9758 17.505C15.9691 17.5183 15.9658 17.5367 15.9658 17.56C15.8791 17.6933 15.7691 17.8417 15.6358 18.005C15.5024 18.1683 15.3724 18.32 15.2458 18.46C15.4191 18.4 15.5691 18.345 15.6958 18.295C15.8258 18.245 15.9424 18.1983 16.0458 18.155C16.1524 18.115 16.2508 18.075 16.3408 18.035C16.4308 17.9983 16.5241 17.9617 16.6208 17.925C16.6308 17.925 16.6208 17.9367 16.5908 17.96C16.5608 17.9833 16.5374 18.005 16.5208 18.025L16.2708 18.275C16.1941 18.3283 16.0991 18.3833 15.9858 18.44C15.8758 18.4967 15.7591 18.55 15.6358 18.6C15.5124 18.65 15.3908 18.6917 15.2708 18.725C15.1508 18.7617 15.0474 18.785 14.9608 18.795C14.9241 18.8017 14.8974 18.8033 14.8808 18.8C14.8674 18.7967 14.8574 18.785 14.8508 18.765C14.8474 18.7517 14.8458 18.7317 14.8458 18.705C14.8491 18.6817 14.8541 18.6617 14.8608 18.645C14.8674 18.6283 14.8724 18.61 14.8758 18.59C14.8824 18.57 14.8941 18.55 14.9108 18.53C14.9408 18.4933 14.9858 18.4417 15.0458 18.375C15.1058 18.3117 15.1708 18.24 15.2408 18.16C15.3141 18.0833 15.3858 18.0033 15.4558 17.92C15.5258 17.8367 15.5858 17.7583 15.6358 17.685C15.5124 17.7283 15.3824 17.775 15.2458 17.825C15.1124 17.8783 14.9691 17.9283 14.8158 17.975C14.7858 17.9817 14.7691 17.9683 14.7658 17.935C14.7624 17.905 14.7658 17.8817 14.7758 17.865C14.7858 17.8517 14.7924 17.8333 14.7958 17.81C14.8024 17.7867 14.8141 17.77 14.8308 17.76C14.8474 17.7467 14.8624 17.735 14.8758 17.725C14.8924 17.715 14.9074 17.705 14.9208 17.695C14.9574 17.6683 15.0024 17.6283 15.0558 17.575C15.1124 17.5217 15.1658 17.465 15.2158 17.405C15.2691 17.345 15.3158 17.2883 15.3558 17.235C15.3991 17.1817 15.4258 17.1417 15.4358 17.115C15.4458 17.0983 15.4441 17.0833 15.4308 17.07C15.4108 17.06 15.3774 17.06 15.3308 17.07C15.2841 17.08 15.2258 17.0967 15.1558 17.12C15.0891 17.1467 15.0141 17.1767 14.9308 17.21C14.8474 17.2433 14.7608 17.2767 14.6708 17.31C14.6408 17.3033 14.6158 17.285 14.5958 17.255C14.5758 17.2283 14.5624 17.2117 14.5558 17.205C14.5458 17.195 14.5408 17.175 14.5408 17.145V17.06C14.5374 17.0333 14.5341 17.0133 14.5308 17C14.5308 16.99 14.5391 16.9783 14.5558 16.965C14.6091 16.935 14.6674 16.9067 14.7308 16.88C14.7941 16.85 14.8591 16.8233 14.9258 16.8C14.9924 16.7733 15.0608 16.7517 15.1308 16.735C15.2008 16.715 15.2691 16.7033 15.3358 16.7C15.3624 16.6967 15.3941 16.6933 15.4308 16.69C15.4708 16.6833 15.5041 16.6817 15.5308 16.685C15.5674 16.6917 15.5958 16.7083 15.6158 16.735C15.6358 16.7583 15.6591 16.7783 15.6858 16.795L15.7658 16.85C15.7924 16.8667 15.8058 16.8967 15.8058 16.94ZM15.1908 14.28C15.1341 14.3633 15.0708 14.455 15.0008 14.555C14.9341 14.655 14.8808 14.7383 14.8408 14.805C14.8708 14.795 14.9108 14.7833 14.9608 14.77C15.0108 14.7567 15.0591 14.7467 15.1058 14.74C15.1291 14.7367 15.1508 14.7367 15.1708 14.74L15.2308 14.75C15.2474 14.7533 15.2641 14.755 15.2808 14.755C15.2974 14.755 15.3108 14.7583 15.3208 14.765C15.3341 14.7717 15.3491 14.7817 15.3658 14.795C15.3824 14.8083 15.3891 14.8233 15.3858 14.84C15.3858 14.86 15.3774 14.885 15.3608 14.915C15.3474 14.945 15.3324 14.9717 15.3158 14.995C15.2424 15.0983 15.1674 15.2083 15.0908 15.325C15.0141 15.4383 14.9408 15.55 14.8708 15.66C14.9274 15.6367 14.9891 15.6117 15.0558 15.585C15.1224 15.555 15.1874 15.5267 15.2508 15.5C15.3174 15.47 15.3808 15.4433 15.4408 15.42C15.5041 15.3967 15.5591 15.3783 15.6058 15.365C15.6391 15.3583 15.6691 15.3533 15.6958 15.35C15.7258 15.3467 15.7574 15.3433 15.7908 15.34C15.7808 15.3633 15.7691 15.3783 15.7558 15.385C15.7424 15.3917 15.7274 15.405 15.7108 15.425C15.6841 15.4617 15.6541 15.5033 15.6208 15.55C15.5874 15.5967 15.5524 15.63 15.5158 15.65C15.4558 15.6833 15.3891 15.7183 15.3158 15.755C15.2424 15.7883 15.1674 15.8217 15.0908 15.855C15.0174 15.8883 14.9424 15.92 14.8658 15.95C14.7924 15.9767 14.7241 16 14.6608 16.02C14.6541 16.01 14.6524 15.9967 14.6558 15.98C14.6591 15.9633 14.6608 15.9417 14.6608 15.915C14.6608 15.8983 14.6591 15.8817 14.6558 15.865C14.6524 15.845 14.6541 15.8267 14.6608 15.81L14.7058 15.705C14.7324 15.645 14.7641 15.5817 14.8008 15.515C14.8374 15.4483 14.8741 15.385 14.9108 15.325C14.9474 15.2617 14.9808 15.205 15.0108 15.155C15.0441 15.1017 15.0691 15.0617 15.0858 15.035C15.0358 15.0517 14.9624 15.0833 14.8658 15.13C14.7724 15.1767 14.6824 15.2233 14.5958 15.27C14.5658 15.27 14.5558 15.2417 14.5658 15.185C14.5724 15.1583 14.5808 15.135 14.5908 15.115C14.6008 15.095 14.6124 15.0683 14.6258 15.035C14.6358 15.0117 14.6408 14.9867 14.6408 14.96C14.6441 14.9333 14.6524 14.9067 14.6658 14.88C14.7158 14.7767 14.7808 14.67 14.8608 14.56C14.9408 14.4467 15.0091 14.3483 15.0658 14.265C15.0758 14.245 15.0574 14.2333 15.0108 14.23C14.9674 14.2233 14.9108 14.2217 14.8408 14.225C14.7708 14.225 14.6958 14.23 14.6158 14.24C14.5391 14.2467 14.4724 14.2533 14.4158 14.26L14.4008 14.175C14.4008 14.1583 14.4008 14.1433 14.4008 14.13C14.4041 14.1133 14.4041 14.1 14.4008 14.09C14.3974 14.0767 14.3924 14.0667 14.3858 14.06C14.3824 14.05 14.3808 14.0367 14.3808 14.02C14.4074 13.9867 14.4458 13.96 14.4958 13.94C14.5491 13.92 14.6041 13.9083 14.6608 13.905C14.7208 13.8983 14.7791 13.8983 14.8358 13.905C14.8958 13.9117 14.9491 13.925 14.9958 13.945C15.0091 13.9517 15.0241 13.9583 15.0408 13.965C15.0608 13.9717 15.0774 13.9783 15.0908 13.985C15.1108 13.9983 15.1374 14.0183 15.1708 14.045C15.2041 14.0683 15.2274 14.09 15.2408 14.11C15.2574 14.1367 15.2574 14.1633 15.2408 14.19C15.2241 14.2167 15.2074 14.2467 15.1908 14.28ZM16.1058 16.005C16.1058 16.0217 16.0958 16.0367 16.0758 16.05C16.0558 16.06 16.0391 16.0733 16.0258 16.09C15.9991 16.1233 15.9708 16.1533 15.9408 16.18C15.9141 16.2033 15.8774 16.2267 15.8308 16.25C15.7974 16.2667 15.7574 16.285 15.7108 16.305C15.6641 16.325 15.6324 16.3383 15.6158 16.345C15.4358 16.3917 15.2591 16.435 15.0858 16.475C14.9124 16.515 14.7358 16.535 14.5558 16.535C14.5324 16.5217 14.5074 16.51 14.4808 16.5C14.4574 16.4867 14.4424 16.4733 14.4358 16.46C14.4324 16.4533 14.4258 16.45 14.4158 16.45C14.4058 16.4467 14.4074 16.44 14.4208 16.43C14.4308 16.4233 14.4508 16.4117 14.4808 16.395C14.5141 16.3783 14.5391 16.3667 14.5558 16.36C14.6658 16.3167 14.7841 16.275 14.9108 16.235C15.0374 16.1917 15.1674 16.155 15.3008 16.125C15.4341 16.0917 15.5691 16.065 15.7058 16.045C15.8424 16.0217 15.9758 16.0083 16.1058 16.005ZM20.6054 16.485C20.5754 16.5283 20.5404 16.5767 20.5004 16.63C20.4604 16.6833 20.4187 16.7383 20.3754 16.795C20.3321 16.8483 20.2887 16.9033 20.2454 16.96C20.2021 17.0167 20.1637 17.0683 20.1304 17.115C20.1871 17.0917 20.2521 17.0683 20.3254 17.045C20.3987 17.025 20.4587 17.0083 20.5054 16.995C20.5487 16.985 20.5937 16.9783 20.6404 16.975C20.6904 16.9683 20.7321 16.9767 20.7654 17C20.7821 17.01 20.7954 17.015 20.8054 17.015C20.8187 17.015 20.8337 17.0233 20.8504 17.04C20.8571 17.0667 20.8604 17.09 20.8604 17.11C20.8637 17.1333 20.8621 17.1583 20.8554 17.185C20.8487 17.2017 20.8354 17.22 20.8154 17.24C20.7954 17.26 20.7804 17.2767 20.7704 17.29C20.7204 17.3667 20.6671 17.4483 20.6104 17.535C20.5571 17.625 20.5021 17.7167 20.4454 17.81C20.3921 17.9033 20.3404 17.995 20.2904 18.085C20.2404 18.175 20.1954 18.26 20.1554 18.34C20.2254 18.3067 20.3071 18.2633 20.4004 18.21C20.4971 18.1567 20.5954 18.1 20.6954 18.04C20.7987 17.98 20.9021 17.92 21.0054 17.86C21.1087 17.8033 21.2037 17.7517 21.2904 17.705C21.3271 17.6883 21.3671 17.6733 21.4104 17.66C21.4571 17.65 21.5004 17.64 21.5404 17.63C21.5671 17.62 21.5921 17.6083 21.6154 17.595C21.6421 17.5817 21.6687 17.5717 21.6954 17.565C21.4521 17.7683 21.1837 17.9733 20.8904 18.18C20.6004 18.39 20.3037 18.575 20.0004 18.735C19.9437 18.7617 19.9071 18.765 19.8904 18.745C19.8771 18.725 19.8687 18.7033 19.8654 18.68C19.8587 18.6467 19.8571 18.615 19.8604 18.585C19.8637 18.555 19.8671 18.5317 19.8704 18.515C19.8737 18.495 19.8787 18.485 19.8854 18.485C19.8921 18.485 19.8971 18.4783 19.9004 18.465C19.9671 18.285 20.0537 18.1 20.1604 17.91C20.2671 17.7233 20.3654 17.54 20.4554 17.36C20.3621 17.3867 20.2504 17.4233 20.1204 17.47C19.9904 17.5167 19.8554 17.5667 19.7154 17.62C19.6987 17.5833 19.6904 17.5567 19.6904 17.54C19.6904 17.5267 19.6887 17.4967 19.6854 17.45C19.6887 17.43 19.6987 17.4133 19.7154 17.4C19.7321 17.39 19.7437 17.3767 19.7504 17.36C19.7571 17.3433 19.7637 17.3233 19.7704 17.3C19.7771 17.28 19.7904 17.265 19.8104 17.255C19.8837 17.135 19.9654 17.0083 20.0554 16.875C20.1454 16.7383 20.2237 16.6167 20.2904 16.51C20.2504 16.5133 20.2021 16.5183 20.1454 16.525C20.0887 16.5283 20.0287 16.535 19.9654 16.545C19.9021 16.5517 19.8371 16.56 19.7704 16.57C19.7071 16.5767 19.6487 16.585 19.5954 16.595C19.5787 16.5883 19.5587 16.575 19.5354 16.555C19.5154 16.535 19.4954 16.5217 19.4754 16.515C19.4621 16.5083 19.4454 16.5033 19.4254 16.5C19.4054 16.4933 19.3937 16.4833 19.3904 16.47C19.3871 16.46 19.3771 16.4433 19.3604 16.42C19.3437 16.3967 19.3471 16.38 19.3704 16.37C19.4404 16.33 19.5154 16.2983 19.5954 16.275C19.6754 16.2483 19.7554 16.2267 19.8354 16.21C19.9187 16.1933 19.9971 16.1817 20.0704 16.175C20.1471 16.1683 20.2154 16.165 20.2754 16.165C20.3021 16.165 20.3321 16.1667 20.3654 16.17C20.4021 16.17 20.4321 16.1733 20.4554 16.18C20.5021 16.1933 20.5387 16.2117 20.5654 16.235C20.5921 16.255 20.6137 16.275 20.6304 16.295C20.6504 16.3217 20.6621 16.3433 20.6654 16.36C20.6721 16.3767 20.6721 16.3933 20.6654 16.41C20.6621 16.4233 20.6537 16.4367 20.6404 16.45C20.6271 16.46 20.6154 16.4717 20.6054 16.485ZM19.0354 13.97C19.0354 13.9333 19.0421 13.915 19.0554 13.915C19.0621 13.915 19.0687 13.92 19.0754 13.93C19.0854 13.94 19.0937 13.9467 19.1004 13.95C19.1071 13.9533 19.1121 13.9567 19.1154 13.96C19.1221 13.96 19.1287 13.9633 19.1354 13.97C19.1787 14.1067 19.2087 14.2417 19.2254 14.375C19.2454 14.5417 19.2537 14.7167 19.2504 14.9C19.2471 15.0833 19.2337 15.2667 19.2104 15.45C19.1871 15.6333 19.1537 15.8117 19.1104 15.985C19.0671 16.155 19.0171 16.31 18.9604 16.45C18.9471 16.48 18.9421 16.5183 18.9454 16.565C18.9487 16.6117 18.9454 16.6483 18.9354 16.675C18.9187 16.6917 18.9037 16.7017 18.8904 16.705C18.8771 16.7083 18.8571 16.7217 18.8304 16.745C18.8071 16.765 18.7771 16.765 18.7404 16.745C18.7071 16.725 18.6771 16.7017 18.6504 16.675C18.6004 16.6283 18.5604 16.57 18.5304 16.5C18.5037 16.43 18.4837 16.36 18.4704 16.29C18.4604 16.2167 18.4554 16.1467 18.4554 16.08C18.4587 16.01 18.4654 15.9517 18.4754 15.905C18.4854 15.8683 18.5004 15.8283 18.5204 15.785C18.5404 15.7417 18.5671 15.6983 18.6004 15.655C18.6371 15.6117 18.6804 15.57 18.7304 15.53C18.7837 15.49 18.8471 15.455 18.9204 15.425C18.9437 15.205 18.9637 14.9717 18.9804 14.725C19.0004 14.475 19.0187 14.2233 19.0354 13.97ZM20.4704 13.99C20.4904 14.07 20.5004 14.1783 20.5004 14.315C20.5037 14.4517 20.5004 14.6 20.4904 14.76C20.4804 14.92 20.4671 15.085 20.4504 15.255C20.4337 15.4217 20.4187 15.575 20.4054 15.715C20.4021 15.735 20.3937 15.7533 20.3804 15.77C20.3671 15.7833 20.3571 15.7983 20.3504 15.815C20.3371 15.8483 20.3237 15.8733 20.3104 15.89C20.2971 15.9033 20.2837 15.9267 20.2704 15.96C20.1804 15.6767 20.1354 15.3817 20.1354 15.075C20.1387 14.7683 20.1621 14.4733 20.2054 14.19C20.2087 14.1733 20.2121 14.1617 20.2154 14.155C20.2187 14.1483 20.2221 14.1433 20.2254 14.14C20.2321 14.1333 20.2387 14.1283 20.2454 14.125C20.2554 14.1183 20.2671 14.1083 20.2804 14.095C20.2971 14.0783 20.3121 14.065 20.3254 14.055C20.3387 14.0417 20.3521 14.03 20.3654 14.02C20.3721 14.0133 20.3804 14.0083 20.3904 14.005C20.4004 13.9983 20.4104 13.9917 20.4204 13.985C20.4304 13.9783 20.4371 13.9733 20.4404 13.97C20.4471 13.9633 20.4537 13.96 20.4604 13.96L20.4704 13.99ZM18.1654 15.03C18.1654 15.12 18.1654 15.2083 18.1654 15.295C18.1654 15.3817 18.1621 15.4717 18.1554 15.565C18.1521 15.655 18.1437 15.7517 18.1304 15.855C18.1171 15.9583 18.0987 16.0717 18.0754 16.195C18.0721 16.205 18.0737 16.21 18.0804 16.21C18.0871 16.2067 18.0937 16.2033 18.1004 16.2C18.1071 16.1933 18.1137 16.19 18.1204 16.19C18.1271 16.1867 18.1287 16.19 18.1254 16.2C18.1187 16.23 18.1054 16.2733 18.0854 16.33C18.0687 16.3867 18.0554 16.4417 18.0454 16.495C18.0354 16.495 18.0237 16.4883 18.0104 16.475C18.0004 16.4583 17.9904 16.44 17.9804 16.42C17.9704 16.4 17.9604 16.38 17.9504 16.36C17.9404 16.34 17.9321 16.3233 17.9254 16.31C17.9254 16.2967 17.9187 16.2817 17.9054 16.265C17.8921 16.245 17.8854 16.2283 17.8854 16.215C17.8787 15.985 17.8737 15.7567 17.8704 15.53C17.8671 15.3 17.8721 15.07 17.8854 14.84C17.8887 14.8233 17.8937 14.8067 17.9004 14.79C17.9104 14.77 17.9221 14.7483 17.9354 14.725C17.9421 14.7117 17.9504 14.7 17.9604 14.69C17.9704 14.68 17.9754 14.665 17.9754 14.645C18.0221 14.645 18.0537 14.6517 18.0704 14.665C18.0904 14.6783 18.1037 14.6983 18.1104 14.725C18.1137 14.7417 18.1137 14.7617 18.1104 14.785C18.1071 14.805 18.1054 14.8267 18.1054 14.85C18.1054 14.8767 18.1104 14.9017 18.1204 14.925C18.1304 14.945 18.1404 14.9633 18.1504 14.98C18.1604 14.9933 18.1654 15.01 18.1654 15.03ZM18.6304 16.055C18.6337 16.1317 18.6471 16.2117 18.6704 16.295C18.6937 16.375 18.7187 16.4383 18.7454 16.485C18.7987 16.305 18.8437 16.0667 18.8804 15.77C18.8104 15.8067 18.7521 15.85 18.7054 15.9C18.6587 15.95 18.6337 16.0017 18.6304 16.055ZM22.0849 14.845C22.1049 14.925 22.0965 15.0067 22.0599 15.09C22.0265 15.1733 21.9815 15.2533 21.9249 15.33C21.8682 15.4067 21.8065 15.4783 21.7399 15.545C21.6765 15.6083 21.6232 15.6617 21.5799 15.705C21.6765 15.6817 21.7665 15.665 21.8499 15.655C21.9365 15.645 22.0082 15.6433 22.0649 15.65C22.0815 15.6533 22.1015 15.6567 22.1249 15.66C22.1515 15.66 22.1715 15.6633 22.1849 15.67C22.2015 15.6767 22.2099 15.685 22.2099 15.695C22.2132 15.7017 22.2182 15.7117 22.2249 15.725C22.2349 15.755 22.2432 15.78 22.2499 15.8C22.2599 15.82 22.2615 15.8417 22.2549 15.865C22.2482 15.8817 22.2382 15.9 22.2249 15.92C22.2115 15.9367 22.1999 15.9517 22.1899 15.965C22.0865 16.115 21.9782 16.2667 21.8649 16.42C21.7515 16.5733 21.6532 16.735 21.5699 16.905C21.7299 16.8417 21.8915 16.7583 22.0549 16.655C22.2182 16.5517 22.3699 16.445 22.5099 16.335C22.6499 16.225 22.7749 16.1217 22.8849 16.025C22.9949 15.9283 23.0782 15.855 23.1349 15.805C23.1349 15.8217 23.1215 15.85 23.0949 15.89C23.0715 15.93 23.0565 15.9583 23.0499 15.975C23.0232 16.035 22.9965 16.08 22.9699 16.11C22.9432 16.1367 22.9165 16.18 22.8899 16.24C22.8499 16.29 22.8032 16.3483 22.7499 16.415C22.6965 16.4817 22.6465 16.5417 22.5999 16.595C22.5332 16.6683 22.4632 16.74 22.3899 16.81C22.3165 16.88 22.2382 16.945 22.1549 17.005C22.0749 17.065 21.9915 17.1183 21.9049 17.165C21.8182 17.2117 21.7282 17.2467 21.6349 17.27C21.6149 17.2767 21.5949 17.2767 21.5749 17.27C21.5582 17.2633 21.5399 17.2567 21.5199 17.25C21.4999 17.2433 21.4765 17.2383 21.4499 17.235C21.4265 17.2317 21.4082 17.2217 21.3949 17.205C21.3849 17.1883 21.3799 17.1717 21.3799 17.155C21.3832 17.1383 21.3849 17.1167 21.3849 17.09C21.3882 17.0233 21.4065 16.9417 21.4399 16.845C21.4765 16.745 21.5165 16.6433 21.5599 16.54C21.6065 16.4367 21.6532 16.34 21.6999 16.25C21.7465 16.1567 21.7832 16.0817 21.8099 16.025C21.7832 16.0283 21.7515 16.035 21.7149 16.045C21.6782 16.0517 21.6382 16.06 21.5949 16.07C21.5549 16.08 21.5132 16.09 21.4699 16.1C21.4299 16.1067 21.3932 16.1133 21.3599 16.12C21.3432 16.1267 21.3282 16.1267 21.3149 16.12C21.3015 16.1133 21.2865 16.105 21.2699 16.095C21.2565 16.0883 21.2382 16.08 21.2149 16.07C21.1949 16.06 21.1815 16.0467 21.1749 16.03C21.1715 16.02 21.1732 16.0117 21.1799 16.005C21.1865 15.995 21.1899 15.9833 21.1899 15.97C21.1899 15.9567 21.1965 15.94 21.2099 15.92C21.2232 15.8967 21.2382 15.875 21.2549 15.855C21.2749 15.8317 21.2932 15.8117 21.3099 15.795C21.3265 15.7783 21.3399 15.765 21.3499 15.755C21.3899 15.7017 21.4315 15.6417 21.4749 15.575C21.5215 15.5083 21.5632 15.4417 21.5999 15.375C21.6365 15.3083 21.6682 15.245 21.6949 15.185C21.7215 15.1217 21.7382 15.0667 21.7449 15.02C21.7449 15.0033 21.7299 14.995 21.6999 14.995C21.6699 14.9917 21.6332 14.9933 21.5899 15C21.5465 15.0067 21.4999 15.0167 21.4499 15.03C21.4032 15.04 21.3632 15.05 21.3299 15.06C21.3032 15.0567 21.2699 15.0417 21.2299 15.015C21.1932 14.9883 21.1665 14.965 21.1499 14.945C21.1332 14.9283 21.1249 14.915 21.1249 14.905C21.1249 14.8917 21.1232 14.8833 21.1199 14.88C21.0999 14.8533 21.1115 14.8283 21.1549 14.805C21.1749 14.7917 21.2065 14.7767 21.2499 14.76C21.2932 14.74 21.3399 14.7217 21.3899 14.705C21.4432 14.6883 21.4965 14.6733 21.5499 14.66C21.6032 14.6467 21.6482 14.6383 21.6849 14.635C21.7049 14.6317 21.7315 14.6333 21.7649 14.64C21.7982 14.6433 21.8332 14.6533 21.8699 14.67C21.8865 14.6767 21.9082 14.6917 21.9349 14.715C21.9649 14.7383 21.9882 14.755 22.0049 14.765C22.0315 14.7817 22.0482 14.7933 22.0549 14.8C22.0615 14.8033 22.0715 14.8183 22.0849 14.845ZM23.5749 14.985C23.5882 15.1017 23.5965 15.2333 23.5999 15.38C23.6065 15.5233 23.6082 15.6717 23.6049 15.825C23.6049 15.9783 23.6015 16.13 23.5949 16.28C23.5915 16.4267 23.5865 16.5617 23.5799 16.685C23.5765 16.8083 23.5715 16.9117 23.5649 16.995C23.5615 17.0783 23.5599 17.1333 23.5599 17.16C23.4899 17.0667 23.4382 16.9367 23.4049 16.77C23.3749 16.6 23.3565 16.415 23.3499 16.215C23.3465 16.015 23.3515 15.81 23.3649 15.6C23.3782 15.3867 23.3949 15.1883 23.4149 15.005C23.4115 14.9917 23.4165 14.9817 23.4299 14.975C23.4465 14.965 23.4632 14.9533 23.4799 14.94C23.4899 14.9333 23.4999 14.9233 23.5099 14.91C23.5199 14.8967 23.5282 14.89 23.5349 14.89C23.5549 14.8867 23.5649 14.8983 23.5649 14.925C23.5682 14.9483 23.5715 14.9683 23.5749 14.985ZM24.4814 15.54C24.4648 15.72 24.4448 15.9133 24.4214 16.12C24.4014 16.3233 24.3881 16.515 24.3814 16.695C24.5548 16.625 24.7598 16.535 24.9964 16.425C25.2364 16.3117 25.4764 16.1783 25.7164 16.025C25.7331 16.015 25.7548 16.0017 25.7814 15.985C25.8081 15.965 25.8248 15.9583 25.8314 15.965C25.8348 15.9717 25.8281 15.9867 25.8114 16.01C25.7948 16.0333 25.7864 16.0483 25.7864 16.055C25.7864 16.095 25.7764 16.1317 25.7564 16.165C25.7364 16.1983 25.7114 16.2333 25.6814 16.27C25.6514 16.3067 25.6198 16.3467 25.5864 16.39C25.5531 16.4333 25.5231 16.485 25.4964 16.545C25.4331 16.5983 25.3548 16.6567 25.2614 16.72C25.1681 16.7833 25.0698 16.845 24.9664 16.905C24.8664 16.9617 24.7681 17.0133 24.6714 17.06C24.5748 17.1067 24.4948 17.14 24.4314 17.16C24.3981 17.1567 24.3748 17.145 24.3614 17.125C24.3481 17.105 24.3298 17.085 24.3064 17.065C24.2898 17.0483 24.2681 17.035 24.2414 17.025C24.2181 17.015 24.2014 17.0017 24.1914 16.985C24.1581 16.925 24.1398 16.865 24.1364 16.805C24.1298 16.7117 24.1298 16.6083 24.1364 16.495C24.1431 16.3783 24.1548 16.26 24.1714 16.14C24.1881 16.02 24.2081 15.9017 24.2314 15.785C24.2581 15.665 24.2864 15.5517 24.3164 15.445C24.3164 15.4417 24.3181 15.4383 24.3214 15.435C24.2948 15.435 24.2698 15.435 24.2464 15.435C24.2231 15.435 24.1998 15.4333 24.1764 15.43C24.0531 15.4267 23.9781 15.3983 23.9514 15.345C23.9248 15.295 23.9248 15.2667 23.9514 15.26C23.9781 15.2533 24.0031 15.25 24.0264 15.25C24.2564 15.25 24.4731 15.265 24.6764 15.295C24.8831 15.3217 25.0914 15.3567 25.3014 15.4L25.4114 15.445C25.3514 15.4883 25.2898 15.51 25.2264 15.51C25.1664 15.51 25.1281 15.5083 25.1114 15.505C24.8848 15.475 24.6714 15.455 24.4714 15.445C24.4781 15.4617 24.4814 15.4783 24.4814 15.495C24.4814 15.5083 24.4814 15.5233 24.4814 15.54ZM27.1014 15.625C27.1014 15.6383 27.0848 15.6617 27.0514 15.695C27.0448 15.7017 27.0398 15.7083 27.0364 15.715C27.0331 15.7217 27.0281 15.7283 27.0214 15.735C27.0114 15.7417 27.0014 15.7483 26.9914 15.755C26.9814 15.7617 26.9681 15.7667 26.9514 15.77C26.9181 15.7767 26.8731 15.7833 26.8164 15.79C26.7598 15.7967 26.6981 15.805 26.6314 15.815C26.5648 15.8217 26.4964 15.83 26.4264 15.84C26.3598 15.85 26.2981 15.8617 26.2414 15.875L26.2764 17.035C26.2331 17.0083 26.2048 16.97 26.1914 16.92C26.1814 16.8667 26.1648 16.815 26.1414 16.765C26.1248 16.7317 26.1064 16.7 26.0864 16.67C26.0698 16.64 26.0531 16.61 26.0364 16.58C26.0231 16.55 26.0098 16.5183 25.9964 16.485C25.9864 16.4483 25.9798 16.4067 25.9764 16.36C25.9664 16.24 25.9598 16.1083 25.9564 15.965C25.9564 15.8183 25.9581 15.6733 25.9614 15.53C25.9681 15.3867 25.9764 15.25 25.9864 15.12C25.9964 14.9867 26.0064 14.8717 26.0164 14.775C26.0198 14.755 26.0198 14.7367 26.0164 14.72C26.0131 14.7 26.0131 14.6817 26.0164 14.665L26.0514 14.555C26.0681 14.485 26.0981 14.4617 26.1414 14.485C26.1648 14.4983 26.1798 14.525 26.1864 14.565C26.1964 14.6017 26.2014 14.63 26.2014 14.65L26.2314 15.645C26.3014 15.6317 26.3764 15.6217 26.4564 15.615C26.5398 15.605 26.6214 15.5983 26.7014 15.595C26.7814 15.5917 26.8564 15.5933 26.9264 15.6C26.9964 15.6033 27.0548 15.6117 27.1014 15.625Z" fill="black"/>
<line y1="12.5" x2="39" y2="12.5" stroke="black"/>
</svg>
