<svg width="101" height="48" viewBox="0 0 101 48" fill="none" xmlns="http://www.w3.org/2000/svg">
<circle cx="22.5" cy="25.5" r="22.5" fill="black"/>
<path d="M12.2305 14.8984C11.3398 14.9453 10.5898 15.2852 9.98047 15.918C9.39453 16.5508 8.97266 17.2773 8.71484 18.0977C8.45703 18.8945 8.32812 19.7148 8.32812 20.5586C8.32812 21.4023 8.44531 22.2344 8.67969 23.0547C8.9375 23.875 9.37109 24.6016 9.98047 25.2344C10.5898 25.8438 11.3398 26.1719 12.2305 26.2188H23.832C25.3086 26.3594 26.1172 27.168 26.2578 28.6445C26.2344 29.3008 25.9883 29.8516 25.5195 30.2969C25.0508 30.7188 24.4883 30.9297 23.832 30.9297H12.6172H11C9.35938 30.8359 8.01172 30.2148 6.95703 29.0664C5.90234 27.8945 5.14062 26.5703 4.67188 25.0938C4.22656 23.6172 4.00391 22.1055 4.00391 20.5586C4.00391 19.4102 4.13281 18.2734 4.39062 17.1484C4.64844 16.0234 5.04688 14.957 5.58594 13.9492C6.14844 12.918 6.88672 12.0391 7.80078 11.3125C8.73828 10.5859 9.80469 10.2109 11 10.1875H11.668H23.832C25.3086 10.3281 26.1172 11.1367 26.2578 12.6133C26.2578 13.2695 26.0117 13.8203 25.5195 14.2656C25.0508 14.6875 24.4883 14.8984 23.832 14.8984H12.2305Z" fill="#EADFC4"/>
<path d="M18.9609 38.1367C18.8203 39.543 18.0469 40.3047 16.6406 40.4219C15.9844 40.4219 15.4102 40.2109 14.918 39.7891C14.4492 39.3438 14.2148 38.793 14.2148 38.1367V21.4727C14.2383 20.8164 14.4844 20.2773 14.9531 19.8555C15.4219 19.4102 15.9844 19.1875 16.6406 19.1875H18.3633H22.6875H31.3711C31.5117 19.1875 31.6523 19.1992 31.793 19.2227H32.0039C33.6445 19.2695 34.9922 19.6445 36.0469 20.3477C37.1016 21.0508 37.8633 21.8594 38.332 22.7734C38.8008 23.6641 39.0352 24.5664 39.0352 25.4805C39.0352 26.418 38.8008 27.3438 38.332 28.2578C37.8867 29.1484 37.125 29.9453 36.0469 30.6484C34.9922 31.3516 33.6445 31.7266 32.0039 31.7734H25.8164C26.0039 32.9453 26.3906 33.8125 26.9766 34.375C27.5391 34.9375 28.2539 35.2188 29.1211 35.2188H36.7148C37.3711 35.2422 37.9102 35.4883 38.332 35.957C38.7773 36.4258 39 36.9883 39 37.6445C38.9766 38.2773 38.7422 38.8164 38.2969 39.2617C37.875 39.6836 37.3477 39.9062 36.7148 39.9297H28.4883C26.7539 39.9531 25.1836 39.2734 23.7773 37.8906C22.3711 36.5078 21.5156 34.8672 21.2109 32.9688C20.7891 30.8594 20.5781 29.6758 20.5781 29.418C20.5781 28.7617 20.8008 28.2109 21.2461 27.7656C21.7148 27.2969 22.2773 27.0625 22.9336 27.0625H32.2148C32.6602 27.0391 33.0234 26.9453 33.3047 26.7812C33.6094 26.5938 33.832 26.3945 33.9727 26.1836C34.1133 25.9492 34.1836 25.7148 34.1836 25.4805C34.1836 25.2461 34.1133 25.0234 33.9727 24.8125C33.832 24.5781 33.6094 24.3789 33.3047 24.2148C33.0234 24.0273 32.6602 23.9219 32.2148 23.8984H22.6875H19.875C19.2656 23.9219 18.9609 24.2266 18.9609 24.8125V38.1367Z" fill="#EADFC4"/>
</svg>